<svg width="37" height="40" viewBox="0 0 37 40" fill="none" xmlns="http://www.w3.org/2000/svg">
<mask id="path-1-inside-1_1458_68" fill="white">
<path fill-rule="evenodd" clip-rule="evenodd" d="M23.2755 1.35129C22.5804 1.17592 21.8705 1.03789 21.148 0.939453V8.6509C21.148 10.2673 19.8377 11.5776 18.2213 11.5776H1.03342C0.691589 12.2645 0.389102 12.9744 0.128906 13.7044H18.2213C19.8377 13.7044 21.148 15.0147 21.148 16.6311V24.4126C21.148 26.029 19.8377 27.3394 18.2213 27.3394H0.332601C0.619085 28.0725 0.948689 28.7841 1.3183 29.471H18.2213C19.8377 29.471 21.148 30.7813 21.148 32.3977V39.5589C21.8705 39.4605 22.5804 39.3224 23.2755 39.1471V32.3977C23.2755 30.7813 24.5858 29.471 26.2022 29.471H35.6663C36.0359 28.7841 36.3655 28.0725 36.652 27.3394H26.2022C24.5858 27.3394 23.2755 26.029 23.2755 24.4126V16.6311C23.2755 15.0147 24.5858 13.7044 26.2022 13.7044H36.8557C36.5955 12.9744 36.293 12.2645 35.9512 11.5776H26.2022C24.5858 11.5776 23.2755 10.2673 23.2755 8.6509V1.35129Z"/>
</mask>
<path fill-rule="evenodd" clip-rule="evenodd" d="M23.2755 1.35129C22.5804 1.17592 21.8705 1.03789 21.148 0.939453V8.6509C21.148 10.2673 19.8377 11.5776 18.2213 11.5776H1.03342C0.691589 12.2645 0.389102 12.9744 0.128906 13.7044H18.2213C19.8377 13.7044 21.148 15.0147 21.148 16.6311V24.4126C21.148 26.029 19.8377 27.3394 18.2213 27.3394H0.332601C0.619085 28.0725 0.948689 28.7841 1.3183 29.471H18.2213C19.8377 29.471 21.148 30.7813 21.148 32.3977V39.5589C21.8705 39.4605 22.5804 39.3224 23.2755 39.1471V32.3977C23.2755 30.7813 24.5858 29.471 26.2022 29.471H35.6663C36.0359 28.7841 36.3655 28.0725 36.652 27.3394H26.2022C24.5858 27.3394 23.2755 26.029 23.2755 24.4126V16.6311C23.2755 15.0147 24.5858 13.7044 26.2022 13.7044H36.8557C36.5955 12.9744 36.293 12.2645 35.9512 11.5776H26.2022C24.5858 11.5776 23.2755 10.2673 23.2755 8.6509V1.35129Z" fill="#F4F4F4"/>
<path d="M21.148 0.939453L21.3881 -0.822769L19.3695 -1.09779V0.939453H21.148ZM23.2755 1.35129H25.054V-0.0342124L23.7106 -0.373166L23.2755 1.35129ZM1.03342 11.5776V9.79914H-0.0680551L-0.558806 10.7852L1.03342 11.5776ZM0.128906 13.7044L-1.54635 13.1072L-2.39315 15.4829H0.128906V13.7044ZM0.332601 27.3394V25.5609H-2.27179L-1.32393 27.9866L0.332601 27.3394ZM1.3183 29.471L-0.247849 30.3137L0.255684 31.2495H1.3183V29.471ZM21.148 39.5589H19.3695V41.5962L21.3881 41.3211L21.148 39.5589ZM23.2755 39.1471L23.7106 40.8715L25.054 40.5326V39.1471H23.2755ZM35.6663 29.471V31.2495H36.7289L37.2325 30.3137L35.6663 29.471ZM36.652 27.3394L38.3085 27.9866L39.2564 25.5609H36.652V27.3394ZM36.8557 13.7044V15.4829H39.3778L38.531 13.1072L36.8557 13.7044ZM35.9512 11.5776L37.5434 10.7852L37.0527 9.79914H35.9512V11.5776ZM20.9079 2.70167C21.5645 2.79112 22.2093 2.91651 22.8404 3.07575L23.7106 -0.373166C22.9516 -0.564664 22.1766 -0.715341 21.3881 -0.822769L20.9079 2.70167ZM22.9265 8.6509V0.939453H19.3695V8.6509H22.9265ZM18.2213 13.3561C20.8199 13.3561 22.9265 11.2495 22.9265 8.6509H19.3695C19.3695 9.28505 18.8554 9.79914 18.2213 9.79914V13.3561ZM1.03342 13.3561H18.2213V9.79914H1.03342V13.3561ZM1.80416 14.3015C2.04043 13.6387 2.31513 12.994 2.62565 12.37L-0.558806 10.7852C-0.931955 11.535 -1.26222 12.3101 -1.54635 13.1072L1.80416 14.3015ZM18.2213 11.9259H0.128906V15.4829H18.2213V11.9259ZM22.9265 16.6311C22.9265 14.0325 20.8199 11.9259 18.2213 11.9259V15.4829C18.8554 15.4829 19.3695 15.997 19.3695 16.6311H22.9265ZM22.9265 24.4126V16.6311H19.3695V24.4126H22.9265ZM18.2213 29.1179C20.8199 29.1179 22.9265 27.0112 22.9265 24.4126H19.3695C19.3695 25.0468 18.8554 25.5609 18.2213 25.5609V29.1179ZM0.332601 29.1179H18.2213V25.5609H0.332601V29.1179ZM2.88444 28.6282C2.54865 28.0042 2.24929 27.3579 1.98913 26.6921L-1.32393 27.9866C-1.01112 28.7872 -0.651272 29.564 -0.247849 30.3137L2.88444 28.6282ZM18.2213 27.6925H1.3183V31.2495H18.2213V27.6925ZM22.9265 32.3977C22.9265 29.7991 20.8199 27.6925 18.2213 27.6925V31.2495C18.8554 31.2495 19.3695 31.7636 19.3695 32.3977H22.9265ZM22.9265 39.5589V32.3977H19.3695V39.5589H22.9265ZM22.8404 37.4226C22.2093 37.5819 21.5645 37.7072 20.9079 37.7967L21.3881 41.3211C22.1766 41.2137 22.9516 41.063 23.7106 40.8715L22.8404 37.4226ZM25.054 39.1471V32.3977H21.497V39.1471H25.054ZM25.054 32.3977C25.054 31.7636 25.5681 31.2495 26.2022 31.2495V27.6925C23.6036 27.6925 21.497 29.7991 21.497 32.3977H25.054ZM26.2022 31.2495H35.6663V27.6925H26.2022V31.2495ZM34.9955 26.6921C34.7353 27.3579 34.436 28.0042 34.1002 28.6282L37.2325 30.3137C37.6359 29.564 37.9957 28.7872 38.3085 27.9866L34.9955 26.6921ZM26.2022 29.1179H36.652V25.5609H26.2022V29.1179ZM21.497 24.4126C21.497 27.0113 23.6036 29.1179 26.2022 29.1179V25.5609C25.5681 25.5609 25.054 25.0468 25.054 24.4126H21.497ZM21.497 16.6311V24.4126H25.054V16.6311H21.497ZM26.2022 11.9259C23.6036 11.9259 21.497 14.0325 21.497 16.6311H25.054C25.054 15.997 25.5681 15.4829 26.2022 15.4829V11.9259ZM36.8557 11.9259H26.2022V15.4829H36.8557V11.9259ZM34.359 12.37C34.6695 12.994 34.9442 13.6387 35.1804 14.3015L38.531 13.1072C38.2468 12.3101 37.9166 11.535 37.5434 10.7852L34.359 12.37ZM26.2022 13.3561H35.9512V9.79914H26.2022V13.3561ZM21.497 8.6509C21.497 11.2495 23.6036 13.3561 26.2022 13.3561V9.79914C25.5681 9.79914 25.054 9.28505 25.054 8.6509H21.497ZM21.497 1.35129V8.6509H25.054V1.35129H21.497Z" fill="#F4F4F4" mask="url(#path-1-inside-1_1458_68)"/>
</svg>
