<svg width="575" height="555" viewBox="0 0 575 555" fill="none" xmlns="http://www.w3.org/2000/svg">
<g filter="url(#filter0_bd_1541_496)">
<rect x="40" y="20" width="475" height="475" rx="64" fill="white"/>
<rect x="41" y="21" width="473" height="473" rx="63" stroke="white" stroke-width="2"/>
</g>
<g filter="url(#filter1_bd_1541_496)">
<path d="M40 84C40 48.6538 68.6538 20 104 20H451C486.346 20 515 48.6538 515 84V431C515 466.346 486.346 495 451 495H104C68.6538 495 40 466.346 40 431V84Z" fill="url(#paint0_linear_1541_496)" shape-rendering="crispEdges"/>
<path d="M104 21H451C485.794 21 514 49.2061 514 84V431C514 465.794 485.794 494 451 494H104C69.2061 494 41 465.794 41 431V84C41 49.2061 69.2061 21 104 21Z" stroke="url(#paint1_linear_1541_496)" stroke-width="2" shape-rendering="crispEdges"/>
</g>
<path d="M359.98 207.139C359.98 252.125 323.512 288.593 278.526 288.593C233.54 288.593 197.071 252.125 197.071 207.139C197.071 162.153 233.54 125.684 278.526 125.684C323.512 125.684 359.98 162.153 359.98 207.139Z" fill="#212121" stroke="#212121" stroke-width="13.3688"/>
<mask id="path-6-inside-1_1541_496" fill="white">
<path fill-rule="evenodd" clip-rule="evenodd" d="M301.084 121.906C300.479 123.916 300.154 126.047 300.154 128.255V145.919C300.154 158.069 310.004 167.919 322.154 167.919H357.481C359.028 171.028 360.397 174.242 361.574 177.546H322.154C310.004 177.546 300.154 187.396 300.154 199.546V217.21C300.154 229.36 310.004 239.21 322.154 239.21H360.642C359.348 242.521 357.859 245.735 356.189 248.837H322.154C310.004 248.837 300.154 258.687 300.154 270.837V288.501C300.154 289.868 300.278 291.205 300.517 292.503C296.984 293.411 293.365 294.105 289.675 294.571C290.227 292.643 290.523 290.606 290.523 288.501V270.837C290.523 258.687 280.673 248.837 268.523 248.837H200.857C199.137 245.642 197.609 242.328 196.288 238.912C197.469 239.108 198.683 239.21 199.92 239.21H268.523C280.673 239.21 290.523 229.36 290.523 217.21V199.546C290.523 187.396 280.673 177.546 268.523 177.546H199.92C198.335 177.546 196.79 177.714 195.301 178.032C196.516 174.555 197.943 171.178 199.567 167.916C199.684 167.918 199.802 167.919 199.92 167.919H268.523C280.673 167.919 290.523 158.069 290.523 145.919V128.255C290.523 125.174 289.889 122.24 288.746 119.578C292.956 120.064 297.076 120.847 301.084 121.906Z"/>
</mask>
<path fill-rule="evenodd" clip-rule="evenodd" d="M301.084 121.906C300.479 123.916 300.154 126.047 300.154 128.255V145.919C300.154 158.069 310.004 167.919 322.154 167.919H357.481C359.028 171.028 360.397 174.242 361.574 177.546H322.154C310.004 177.546 300.154 187.396 300.154 199.546V217.21C300.154 229.36 310.004 239.21 322.154 239.21H360.642C359.348 242.521 357.859 245.735 356.189 248.837H322.154C310.004 248.837 300.154 258.687 300.154 270.837V288.501C300.154 289.868 300.278 291.205 300.517 292.503C296.984 293.411 293.365 294.105 289.675 294.571C290.227 292.643 290.523 290.606 290.523 288.501V270.837C290.523 258.687 280.673 248.837 268.523 248.837H200.857C199.137 245.642 197.609 242.328 196.288 238.912C197.469 239.108 198.683 239.21 199.92 239.21H268.523C280.673 239.21 290.523 229.36 290.523 217.21V199.546C290.523 187.396 280.673 177.546 268.523 177.546H199.92C198.335 177.546 196.79 177.714 195.301 178.032C196.516 174.555 197.943 171.178 199.567 167.916C199.684 167.918 199.802 167.919 199.92 167.919H268.523C280.673 167.919 290.523 158.069 290.523 145.919V128.255C290.523 125.174 289.889 122.24 288.746 119.578C292.956 120.064 297.076 120.847 301.084 121.906Z" fill="#F4F4F4"/>
<path d="M301.084 121.906L313.886 125.758L317.872 112.511L304.497 108.98L301.084 121.906ZM357.481 167.919L369.45 161.963L365.761 154.55H357.481V167.919ZM361.574 177.546V190.915H380.529L374.168 173.06L361.574 177.546ZM360.642 239.21L373.093 244.077L380.223 225.841H360.642V239.21ZM356.189 248.837V262.206H364.177L367.962 255.172L356.189 248.837ZM300.517 292.503L303.843 305.452L315.919 302.35L313.666 290.087L300.517 292.503ZM289.675 294.571L276.823 290.89L271.243 310.373L291.35 307.834L289.675 294.571ZM200.857 248.837L189.085 255.173L192.87 262.206H200.857V248.837ZM196.288 238.912L198.479 225.723L175.37 221.885L183.819 243.734L196.288 238.912ZM195.301 178.032L182.681 173.62L174.83 196.076L198.094 191.106L195.301 178.032ZM199.567 167.916L199.777 154.549L191.352 154.416L187.598 161.96L199.567 167.916ZM288.746 119.578L290.28 106.298L267.352 103.649L276.463 124.855L288.746 119.578ZM313.523 128.255C313.523 127.366 313.653 126.532 313.886 125.758L288.282 118.053C287.305 121.3 286.785 124.728 286.785 128.255H313.523ZM313.523 145.919V128.255H286.785V145.919H313.523ZM322.154 154.55C317.387 154.55 313.523 150.685 313.523 145.919H286.785C286.785 165.452 302.62 181.287 322.154 181.287V154.55ZM357.481 154.55H322.154V181.287H357.481V154.55ZM374.168 173.06C372.81 169.25 371.233 165.546 369.45 161.963L345.512 173.874C346.823 176.51 347.983 179.233 348.981 182.033L374.168 173.06ZM322.154 190.915H361.574V164.177H322.154V190.915ZM313.523 199.546C313.523 194.779 317.387 190.915 322.154 190.915V164.177C302.62 164.177 286.785 180.012 286.785 199.546H313.523ZM313.523 217.21V199.546H286.785V217.21H313.523ZM322.154 225.841C317.387 225.841 313.523 221.977 313.523 217.21H286.785C286.785 236.744 302.62 252.579 322.154 252.579V225.841ZM360.642 225.841H322.154V252.579H360.642V225.841ZM367.962 255.172C369.885 251.598 371.601 247.895 373.093 244.077L348.191 234.342C347.094 237.148 345.832 239.872 344.417 242.502L367.962 255.172ZM322.154 262.206H356.189V235.469H322.154V262.206ZM313.523 270.837C313.523 266.071 317.387 262.206 322.154 262.206V235.469C302.62 235.469 286.785 251.304 286.785 270.837H313.523ZM313.523 288.501V270.837H286.785V288.501H313.523ZM313.666 290.087C313.573 289.582 313.523 289.053 313.523 288.501H286.785C286.785 290.682 286.984 292.829 287.368 294.92L313.666 290.087ZM291.35 307.834C295.599 307.298 299.77 306.498 303.843 305.452L297.191 279.555C294.198 280.324 291.131 280.912 288 281.307L291.35 307.834ZM277.154 288.501C277.154 289.349 277.036 290.147 276.823 290.89L302.527 298.252C303.419 295.139 303.892 291.864 303.892 288.501H277.154ZM277.154 270.837V288.501H303.892V270.837H277.154ZM268.523 262.206C273.29 262.206 277.154 266.071 277.154 270.837H303.892C303.892 251.304 288.057 235.469 268.523 235.469V262.206ZM200.857 262.206H268.523V235.469H200.857V262.206ZM183.819 243.734C185.342 247.672 187.103 251.491 189.085 255.173L212.629 242.502C211.171 239.793 209.876 236.984 208.757 234.089L183.819 243.734ZM199.92 225.841C199.419 225.841 198.939 225.8 198.479 225.723L194.097 252.1C196 252.416 197.946 252.579 199.92 252.579V225.841ZM268.523 225.841H199.92V252.579H268.523V225.841ZM277.154 217.21C277.154 221.977 273.29 225.841 268.523 225.841V252.579C288.057 252.579 303.892 236.743 303.892 217.21H277.154ZM277.154 199.546V217.21H303.892V199.546H277.154ZM268.523 190.915C273.29 190.915 277.154 194.779 277.154 199.546H303.892C303.892 180.012 288.057 164.177 268.523 164.177V190.915ZM199.92 190.915H268.523V164.177H199.92V190.915ZM198.094 191.106C198.671 190.982 199.28 190.915 199.92 190.915V164.177C197.391 164.177 194.909 164.445 192.508 164.958L198.094 191.106ZM187.598 161.96C185.727 165.719 184.082 169.612 182.681 173.62L207.921 182.444C208.95 179.499 210.159 176.637 211.536 173.872L187.598 161.96ZM199.92 154.55C199.872 154.55 199.824 154.549 199.777 154.549L199.357 181.283C199.544 181.286 199.732 181.287 199.92 181.287V154.55ZM268.523 154.55H199.92V181.287H268.523V154.55ZM277.154 145.919C277.154 150.685 273.29 154.55 268.523 154.55V181.287C288.057 181.287 303.892 165.452 303.892 145.919H277.154ZM277.154 128.255V145.919H303.892V128.255H277.154ZM276.463 124.855C276.903 125.881 277.154 127.021 277.154 128.255H303.892C303.892 123.326 302.876 118.6 301.029 114.301L276.463 124.855ZM304.497 108.98C299.875 107.76 295.128 106.858 290.28 106.298L287.212 132.859C290.784 133.271 294.276 133.935 297.671 134.831L304.497 108.98Z" fill="#F4F4F4" mask="url(#path-6-inside-1_1541_496)"/>
<path d="M144.864 373.949C141.728 373.949 138.848 373.213 136.224 371.741C133.6 370.269 131.52 368.237 129.984 365.645C128.448 363.021 127.68 360.061 127.68 356.765C127.68 353.501 128.448 350.573 129.984 347.981C131.52 345.357 133.6 343.309 136.224 341.837C138.848 340.365 141.728 339.629 144.864 339.629C148.032 339.629 150.912 340.365 153.504 341.837C156.128 343.309 158.192 345.357 159.696 347.981C161.232 350.573 162 353.501 162 356.765C162 360.061 161.232 363.021 159.696 365.645C158.192 368.237 156.128 370.269 153.504 371.741C150.88 373.213 148 373.949 144.864 373.949ZM144.864 367.949C146.88 367.949 148.656 367.501 150.192 366.605C151.728 365.677 152.928 364.365 153.792 362.669C154.656 360.973 155.088 359.005 155.088 356.765C155.088 354.525 154.656 352.573 153.792 350.909C152.928 349.213 151.728 347.917 150.192 347.021C148.656 346.125 146.88 345.677 144.864 345.677C142.848 345.677 141.056 346.125 139.488 347.021C137.952 347.917 136.752 349.213 135.888 350.909C135.024 352.573 134.592 354.525 134.592 356.765C134.592 359.005 135.024 360.973 135.888 362.669C136.752 364.365 137.952 365.677 139.488 366.605C141.056 367.501 142.848 367.949 144.864 367.949ZM179.192 352.541H174.536V373.613H167.72V352.541H164.696V347.021H167.72V345.677C167.72 342.413 168.648 340.013 170.504 338.477C172.36 336.941 175.16 336.221 178.904 336.317V341.981C177.272 341.949 176.136 342.221 175.496 342.797C174.856 343.373 174.536 344.413 174.536 345.917V347.021H179.192V352.541ZM195.738 352.541H191.082V373.613H184.266V352.541H181.242V347.021H184.266V345.677C184.266 342.413 185.194 340.013 187.05 338.477C188.906 336.941 191.706 336.221 195.45 336.317V341.981C193.818 341.949 192.682 342.221 192.042 342.797C191.402 343.373 191.082 344.413 191.082 345.917V347.021H195.738V352.541ZM210.509 346.589C212.493 346.589 214.237 346.989 215.741 347.789C217.245 348.557 218.429 349.565 219.293 350.813V347.021H226.061V373.805C226.061 376.269 225.565 378.461 224.573 380.381C223.581 382.333 222.093 383.869 220.109 384.989C218.125 386.141 215.725 386.717 212.909 386.717C209.133 386.717 206.029 385.837 203.597 384.077C201.197 382.317 199.837 379.917 199.517 376.877H206.189C206.541 378.093 207.293 379.053 208.445 379.757C209.629 380.493 211.053 380.861 212.717 380.861C214.669 380.861 216.253 380.269 217.469 379.085C218.685 377.933 219.293 376.173 219.293 373.805V369.677C218.429 370.925 217.229 371.965 215.693 372.797C214.189 373.629 212.461 374.045 210.509 374.045C208.269 374.045 206.221 373.469 204.365 372.317C202.509 371.165 201.037 369.549 199.949 367.469C198.893 365.357 198.365 362.941 198.365 360.221C198.365 357.533 198.893 355.149 199.949 353.069C201.037 350.989 202.493 349.389 204.317 348.269C206.173 347.149 208.237 346.589 210.509 346.589ZM219.293 360.317C219.293 358.685 218.973 357.293 218.333 356.141C217.693 354.957 216.829 354.061 215.741 353.453C214.653 352.813 213.485 352.493 212.237 352.493C210.989 352.493 209.837 352.797 208.781 353.405C207.725 354.013 206.861 354.909 206.189 356.093C205.549 357.245 205.229 358.621 205.229 360.221C205.229 361.821 205.549 363.229 206.189 364.445C206.861 365.629 207.725 366.541 208.781 367.181C209.869 367.821 211.021 368.141 212.237 368.141C213.485 368.141 214.653 367.837 215.741 367.229C216.829 366.589 217.693 365.693 218.333 364.541C218.973 363.357 219.293 361.949 219.293 360.317ZM239.345 351.149C240.209 349.741 241.329 348.637 242.705 347.837C244.113 347.037 245.713 346.637 247.505 346.637V353.693H245.729C243.617 353.693 242.017 354.189 240.929 355.181C239.873 356.173 239.345 357.901 239.345 360.365V373.613H232.625V347.021H239.345V351.149ZM255.439 343.853C254.255 343.853 253.263 343.485 252.463 342.749C251.695 341.981 251.311 341.037 251.311 339.917C251.311 338.797 251.695 337.869 252.463 337.133C253.263 336.365 254.255 335.981 255.439 335.981C256.623 335.981 257.599 336.365 258.367 337.133C259.167 337.869 259.567 338.797 259.567 339.917C259.567 341.037 259.167 341.981 258.367 342.749C257.599 343.485 256.623 343.853 255.439 343.853ZM258.751 347.021V373.613H252.031V347.021H258.751ZM263.662 360.221C263.662 357.533 264.19 355.149 265.246 353.069C266.334 350.989 267.806 349.389 269.662 348.269C271.518 347.149 273.582 346.589 275.854 346.589C277.582 346.589 279.23 346.973 280.798 347.741C282.366 348.477 283.614 349.469 284.542 350.717V338.093H291.358V373.613H284.542V369.677C283.71 370.989 282.542 372.045 281.038 372.845C279.534 373.645 277.79 374.045 275.806 374.045C273.566 374.045 271.518 373.469 269.662 372.317C267.806 371.165 266.334 369.549 265.246 367.469C264.19 365.357 263.662 362.941 263.662 360.221ZM284.59 360.317C284.59 358.685 284.27 357.293 283.63 356.141C282.99 354.957 282.126 354.061 281.038 353.453C279.95 352.813 278.782 352.493 277.534 352.493C276.286 352.493 275.134 352.797 274.078 353.405C273.022 354.013 272.158 354.909 271.486 356.093C270.846 357.245 270.526 358.621 270.526 360.221C270.526 361.821 270.846 363.229 271.486 364.445C272.158 365.629 273.022 366.541 274.078 367.181C275.166 367.821 276.318 368.141 277.534 368.141C278.782 368.141 279.95 367.837 281.038 367.229C282.126 366.589 282.99 365.693 283.63 364.541C284.27 363.357 284.59 361.949 284.59 360.317ZM296.289 356.813C296.289 353.517 297.025 350.573 298.497 347.981C300.001 345.357 302.033 343.325 304.593 341.885C307.185 340.413 310.081 339.677 313.281 339.677C317.025 339.677 320.305 340.637 323.121 342.557C325.937 344.477 327.905 347.133 329.025 350.525H321.297C320.529 348.925 319.441 347.725 318.033 346.925C316.657 346.125 315.057 345.725 313.233 345.725C311.281 345.725 309.537 346.189 308.001 347.117C306.497 348.013 305.313 349.293 304.449 350.957C303.617 352.621 303.201 354.573 303.201 356.813C303.201 359.021 303.617 360.973 304.449 362.669C305.313 364.333 306.497 365.629 308.001 366.557C309.537 367.453 311.281 367.901 313.233 367.901C315.057 367.901 316.657 367.501 318.033 366.701C319.441 365.869 320.529 364.653 321.297 363.053H329.025C327.905 366.477 325.937 369.149 323.121 371.069C320.337 372.957 317.057 373.901 313.281 373.901C310.081 373.901 307.185 373.181 304.593 371.741C302.033 370.269 300.001 368.237 298.497 365.645C297.025 363.053 296.289 360.109 296.289 356.813ZM333.037 360.221C333.037 357.533 333.565 355.149 334.621 353.069C335.709 350.989 337.165 349.389 338.989 348.269C340.845 347.149 342.909 346.589 345.181 346.589C347.165 346.589 348.893 346.989 350.365 347.789C351.869 348.589 353.069 349.597 353.965 350.813V347.021H360.733V373.613H353.965V369.725C353.101 370.973 351.901 372.013 350.365 372.845C348.861 373.645 347.117 374.045 345.133 374.045C342.893 374.045 340.845 373.469 338.989 372.317C337.165 371.165 335.709 369.549 334.621 367.469C333.565 365.357 333.037 362.941 333.037 360.221ZM353.965 360.317C353.965 358.685 353.645 357.293 353.005 356.141C352.365 354.957 351.501 354.061 350.413 353.453C349.325 352.813 348.157 352.493 346.909 352.493C345.661 352.493 344.509 352.797 343.453 353.405C342.397 354.013 341.533 354.909 340.861 356.093C340.221 357.245 339.901 358.621 339.901 360.221C339.901 361.821 340.221 363.229 340.861 364.445C341.533 365.629 342.397 366.541 343.453 367.181C344.541 367.821 345.693 368.141 346.909 368.141C348.157 368.141 349.325 367.837 350.413 367.229C351.501 366.589 352.365 365.693 353.005 364.541C353.645 363.357 353.965 361.949 353.965 360.317ZM374.016 351.149C374.88 349.741 376 348.637 377.376 347.837C378.784 347.037 380.384 346.637 382.176 346.637V353.693H380.4C378.288 353.693 376.688 354.189 375.6 355.181C374.544 356.173 374.016 357.901 374.016 360.365V373.613H367.296V347.021H374.016V351.149ZM411.423 359.741C411.423 360.701 411.359 361.565 411.231 362.333H391.791C391.951 364.253 392.623 365.757 393.807 366.845C394.991 367.933 396.447 368.477 398.175 368.477C400.671 368.477 402.447 367.405 403.503 365.261H410.751C409.983 367.821 408.511 369.933 406.335 371.597C404.159 373.229 401.487 374.045 398.319 374.045C395.759 374.045 393.455 373.485 391.407 372.365C389.391 371.213 387.807 369.597 386.655 367.517C385.535 365.437 384.975 363.037 384.975 360.317C384.975 357.565 385.535 355.149 386.655 353.069C387.775 350.989 389.343 349.389 391.359 348.269C393.375 347.149 395.695 346.589 398.319 346.589C400.847 346.589 403.103 347.133 405.087 348.221C407.103 349.309 408.655 350.861 409.743 352.877C410.863 354.861 411.423 357.149 411.423 359.741ZM404.463 357.821C404.431 356.093 403.807 354.717 402.591 353.693C401.375 352.637 399.887 352.109 398.127 352.109C396.463 352.109 395.055 352.621 393.903 353.645C392.783 354.637 392.095 356.029 391.839 357.821H404.463Z" fill="#212121"/>
<defs>
<filter id="filter0_bd_1541_496" x="0" y="0" width="555" height="555" filterUnits="userSpaceOnUse" color-interpolation-filters="sRGB">
<feFlood flood-opacity="0" result="BackgroundImageFix"/>
<feGaussianBlur in="BackgroundImageFix" stdDeviation="10"/>
<feComposite in2="SourceAlpha" operator="in" result="effect1_backgroundBlur_1541_496"/>
<feColorMatrix in="SourceAlpha" type="matrix" values="0 0 0 0 0 0 0 0 0 0 0 0 0 0 0 0 0 0 127 0" result="hardAlpha"/>
<feOffset dy="20"/>
<feGaussianBlur stdDeviation="20"/>
<feComposite in2="hardAlpha" operator="out"/>
<feColorMatrix type="matrix" values="0 0 0 0 0 0 0 0 0 0 0 0 0 0 0 0 0 0 0.1 0"/>
<feBlend mode="normal" in2="effect1_backgroundBlur_1541_496" result="effect2_dropShadow_1541_496"/>
<feBlend mode="normal" in="SourceGraphic" in2="effect2_dropShadow_1541_496" result="shape"/>
</filter>
<filter id="filter1_bd_1541_496" x="20" y="0" width="555" height="555" filterUnits="userSpaceOnUse" color-interpolation-filters="sRGB">
<feFlood flood-opacity="0" result="BackgroundImageFix"/>
<feGaussianBlur in="BackgroundImageFix" stdDeviation="10"/>
<feComposite in2="SourceAlpha" operator="in" result="effect1_backgroundBlur_1541_496"/>
<feColorMatrix in="SourceAlpha" type="matrix" values="0 0 0 0 0 0 0 0 0 0 0 0 0 0 0 0 0 0 127 0" result="hardAlpha"/>
<feOffset dx="20" dy="20"/>
<feGaussianBlur stdDeviation="20"/>
<feComposite in2="hardAlpha" operator="out"/>
<feColorMatrix type="matrix" values="0 0 0 0 0.129412 0 0 0 0 0.129412 0 0 0 0 0.129412 0 0 0 0.1 0"/>
<feBlend mode="normal" in2="effect1_backgroundBlur_1541_496" result="effect2_dropShadow_1541_496"/>
<feBlend mode="normal" in="SourceGraphic" in2="effect2_dropShadow_1541_496" result="shape"/>
</filter>
<linearGradient id="paint0_linear_1541_496" x1="40" y1="20" x2="538.59" y2="46.2079" gradientUnits="userSpaceOnUse">
<stop stop-color="white" stop-opacity="0.5"/>
<stop offset="1" stop-color="white" stop-opacity="0.2"/>
</linearGradient>
<linearGradient id="paint1_linear_1541_496" x1="515" y1="495" x2="16.4097" y2="468.792" gradientUnits="userSpaceOnUse">
<stop stop-color="white" stop-opacity="0.7"/>
<stop offset="1" stop-color="white" stop-opacity="0.4"/>
</linearGradient>
</defs>
</svg>
