<svg width="364" height="364" viewBox="0 0 364 364" fill="none" xmlns="http://www.w3.org/2000/svg">
<g filter="url(#filter0_d_2692_2972)">
<rect x="10" y="10" width="324" height="324" rx="24" fill="#FBF4D8"/>
<path d="M245.473 133.5C245.473 174.078 212.578 206.973 172 206.973C131.422 206.973 98.5266 174.078 98.5266 133.5C98.5266 92.9218 131.422 60.0266 172 60.0266C212.578 60.0266 245.473 92.9218 245.473 133.5Z" fill="#212121" stroke="#212121" stroke-width="20.0532"/>
<mask id="path-3-inside-1_2692_2972" fill="white">
<path fill-rule="evenodd" clip-rule="evenodd" d="M195.883 53.4605C193.717 57.5412 192.489 62.1967 192.489 67.139C192.489 83.2707 205.567 96.3481 221.698 96.3481H246.8C248.266 99.2943 249.563 102.339 250.678 105.471H221.698C205.567 105.471 192.489 118.548 192.489 134.68C192.489 150.811 205.567 163.889 221.698 163.889H249.793C248.566 167.025 247.156 170.069 245.574 173.008H221.698C205.567 173.008 192.489 186.085 192.489 202.217C192.489 206.339 193.343 210.262 194.884 213.818C189.943 215.223 184.816 216.185 179.548 216.657C181.975 212.398 183.361 207.469 183.361 202.217C183.361 186.085 170.284 173.008 154.152 173.008H105.894C103.477 173.008 101.128 173.301 98.8818 173.855C96.6129 169.753 94.6791 165.441 93.1173 160.954C96.9766 162.834 101.312 163.889 105.894 163.889H154.152C170.284 163.889 183.361 150.811 183.361 134.68C183.361 118.548 170.284 105.471 154.152 105.471H105.894C100.939 105.471 96.2718 106.704 92.1836 108.882C93.6479 104.128 95.5253 99.5546 97.7738 95.2046C100.352 95.9491 103.076 96.3481 105.894 96.3481H154.152C170.284 96.3481 183.361 83.2707 183.361 67.139C183.361 60.8256 181.358 54.98 177.953 50.2031C184.14 50.6392 190.141 51.7493 195.883 53.4605Z"/>
</mask>
<path fill-rule="evenodd" clip-rule="evenodd" d="M195.883 53.4605C193.717 57.5412 192.489 62.1967 192.489 67.139C192.489 83.2707 205.567 96.3481 221.698 96.3481H246.8C248.266 99.2943 249.563 102.339 250.678 105.471H221.698C205.567 105.471 192.489 118.548 192.489 134.68C192.489 150.811 205.567 163.889 221.698 163.889H249.793C248.566 167.025 247.156 170.069 245.574 173.008H221.698C205.567 173.008 192.489 186.085 192.489 202.217C192.489 206.339 193.343 210.262 194.884 213.818C189.943 215.223 184.816 216.185 179.548 216.657C181.975 212.398 183.361 207.469 183.361 202.217C183.361 186.085 170.284 173.008 154.152 173.008H105.894C103.477 173.008 101.128 173.301 98.8818 173.855C96.6129 169.753 94.6791 165.441 93.1173 160.954C96.9766 162.834 101.312 163.889 105.894 163.889H154.152C170.284 163.889 183.361 150.811 183.361 134.68C183.361 118.548 170.284 105.471 154.152 105.471H105.894C100.939 105.471 96.2718 106.704 92.1836 108.882C93.6479 104.128 95.5253 99.5546 97.7738 95.2046C100.352 95.9491 103.076 96.3481 105.894 96.3481H154.152C170.284 96.3481 183.361 83.2707 183.361 67.139C183.361 60.8256 181.358 54.98 177.953 50.2031C184.14 50.6392 190.141 51.7493 195.883 53.4605Z" fill="#FBF4D8"/>
<path d="M195.883 53.4605L213.595 62.8647L225.079 41.2364L201.611 34.2425L195.883 53.4605ZM246.8 96.3481L264.754 87.4154L259.221 76.2948H246.8V96.3481ZM250.678 105.471V125.524H279.108L269.569 98.7419L250.678 105.471ZM249.793 163.889L268.469 171.191L279.165 143.836H249.793V163.889ZM245.574 173.008V193.061H257.555L263.233 182.511L245.574 173.008ZM194.884 213.818L200.369 233.107L222.383 226.846L213.284 205.846L194.884 213.818ZM179.548 216.657L162.125 206.729L143.134 240.055L181.338 236.63L179.548 216.657ZM98.8818 173.855L81.3346 183.562L88.7683 197L103.679 193.325L98.8818 173.855ZM93.1173 160.954L101.9 142.926L58.1978 121.635L74.1786 167.546L93.1173 160.954ZM92.1836 108.882L73.0189 102.978L58.7123 149.426L101.61 126.581L92.1836 108.882ZM97.7738 95.2046L103.338 75.9388L87.5201 71.3705L79.9598 85.9963L97.7738 95.2046ZM177.953 50.2031L179.363 30.1995L136.936 27.2093L161.624 61.8432L177.953 50.2031ZM212.542 67.139C212.542 65.5546 212.928 64.1196 213.595 62.8647L178.172 44.0563C174.505 50.9627 172.436 58.8389 172.436 67.139H212.542ZM221.698 76.2948C216.642 76.2948 212.542 72.1956 212.542 67.139H172.436C172.436 94.3458 194.492 116.401 221.698 116.401V76.2948ZM246.8 76.2948H221.698V116.401H246.8V76.2948ZM269.569 98.7419C268.184 94.8527 266.573 91.0719 264.754 87.4154L228.846 105.281C229.959 107.517 230.942 109.826 231.788 112.199L269.569 98.7419ZM221.698 125.524H250.678V85.4173H221.698V125.524ZM212.542 134.68C212.542 129.623 216.642 125.524 221.698 125.524V85.4173C194.491 85.4173 172.436 107.473 172.436 134.68H212.542ZM221.698 143.836C216.642 143.836 212.542 139.736 212.542 134.68H172.436C172.436 161.887 194.492 183.942 221.698 183.942V143.836ZM249.793 143.836H221.698V183.942H249.793V143.836ZM263.233 182.511C265.195 178.865 266.946 175.086 268.469 171.191L231.116 156.586C230.187 158.964 229.117 161.273 227.916 163.504L263.233 182.511ZM221.698 193.061H245.574V152.954H221.698V193.061ZM212.542 202.217C212.542 197.16 216.642 193.061 221.698 193.061V152.954C194.491 152.954 172.436 175.01 172.436 202.217H212.542ZM213.284 205.846C212.814 204.759 212.542 203.546 212.542 202.217H172.436C172.436 209.132 173.873 215.765 176.484 221.791L213.284 205.846ZM181.338 236.63C187.867 236.045 194.231 234.852 200.369 233.107L189.399 194.53C185.656 195.594 181.765 196.325 177.758 196.684L181.338 236.63ZM163.308 202.217C163.308 203.897 162.874 205.415 162.125 206.729L196.971 226.586C201.076 219.381 203.415 211.042 203.415 202.217H163.308ZM154.152 193.061C159.209 193.061 163.308 197.16 163.308 202.217H203.415C203.415 175.01 181.359 152.954 154.152 152.954V193.061ZM105.894 193.061H154.152V152.954H105.894V193.061ZM103.679 193.325C104.368 193.156 105.106 193.061 105.894 193.061V152.954C101.847 152.954 97.888 153.446 94.0842 154.384L103.679 193.325ZM74.1786 167.546C76.1185 173.119 78.5196 178.473 81.3346 183.562L116.429 164.148C114.706 161.033 113.24 157.762 112.056 154.361L74.1786 167.546ZM105.894 143.836C104.421 143.836 103.083 143.502 101.9 142.926L84.3346 178.981C90.8701 182.165 98.2028 183.942 105.894 183.942V143.836ZM154.152 143.836H105.894V183.942H154.152V143.836ZM163.308 134.68C163.308 139.736 159.209 143.836 154.152 143.836V183.942C181.359 183.942 203.415 161.887 203.415 134.68H163.308ZM154.152 125.524C159.209 125.524 163.308 129.623 163.308 134.68H203.415C203.415 107.473 181.359 85.4173 154.152 85.4173V125.524ZM105.894 125.524H154.152V85.4173H105.894V125.524ZM101.61 126.581C102.867 125.912 104.305 125.524 105.894 125.524V85.4173C97.572 85.4173 89.6766 87.497 82.7577 91.1817L101.61 126.581ZM79.9598 85.9963C77.1693 91.3946 74.8379 97.0729 73.0189 102.978L111.348 114.785C112.458 111.182 113.881 107.715 115.588 104.413L79.9598 85.9963ZM105.894 76.2948C104.978 76.2948 104.126 76.1663 103.338 75.9388L92.2098 114.471C96.5778 115.732 101.175 116.401 105.894 116.401V76.2948ZM154.152 76.2948H105.894V116.401H154.152V76.2948ZM163.308 67.139C163.308 72.1956 159.209 76.2948 154.152 76.2948V116.401C181.359 116.401 203.415 94.3458 203.415 67.139H163.308ZM161.624 61.8432C162.687 63.3343 163.308 65.1343 163.308 67.139H203.415C203.415 56.5168 200.03 46.6257 194.282 38.563L161.624 61.8432ZM201.611 34.2425C194.476 32.1163 187.027 30.7397 179.363 30.1995L176.543 70.2067C181.253 70.5387 185.807 71.3823 190.156 72.6785L201.611 34.2425Z" fill="#FBF4D8" mask="url(#path-3-inside-1_2692_2972)"/>
<path d="M83.8125 268C83.8125 271.417 83.1875 274.354 81.9375 276.812C80.6875 279.26 78.974 281.146 76.7969 282.469C74.6302 283.781 72.1667 284.437 69.4063 284.437C66.6354 284.437 64.1615 283.781 61.9844 282.469C59.8177 281.146 58.1094 279.255 56.8594 276.797C55.6094 274.339 54.9844 271.406 54.9844 268C54.9844 264.583 55.6094 261.651 56.8594 259.203C58.1094 256.745 59.8177 254.859 61.9844 253.547C64.1615 252.224 66.6354 251.562 69.4063 251.562C72.1667 251.562 74.6302 252.224 76.7969 253.547C78.974 254.859 80.6875 256.745 81.9375 259.203C83.1875 261.651 83.8125 264.583 83.8125 268ZM79.0313 268C79.0313 265.396 78.6094 263.203 77.7656 261.422C76.9323 259.63 75.7865 258.276 74.3281 257.359C72.8802 256.432 71.2396 255.969 69.4063 255.969C67.5625 255.969 65.9167 256.432 64.4688 257.359C63.0208 258.276 61.875 259.63 61.0313 261.422C60.1979 263.203 59.7812 265.396 59.7812 268C59.7812 270.604 60.1979 272.802 61.0313 274.594C61.875 276.375 63.0208 277.729 64.4688 278.656C65.9167 279.573 67.5625 280.031 69.4063 280.031C71.2396 280.031 72.8802 279.573 74.3281 278.656C75.7865 277.729 76.9323 276.375 77.7656 274.594C78.6094 272.802 79.0313 270.604 79.0313 268ZM99.9989 260V263.75H86.4364V260H99.9989ZM90.1552 284V257.219C90.1552 255.719 90.4833 254.474 91.1395 253.484C91.7958 252.484 92.6656 251.74 93.7489 251.25C94.8322 250.75 96.0093 250.5 97.2802 250.5C98.2177 250.5 99.0197 250.578 99.6864 250.734C100.353 250.88 100.848 251.016 101.171 251.141L100.077 254.922C99.8583 254.859 99.577 254.786 99.2333 254.703C98.8895 254.609 98.4729 254.562 97.9833 254.562C96.8479 254.562 96.0354 254.844 95.5458 255.406C95.0666 255.969 94.827 256.781 94.827 257.844V284H90.1552ZM115.361 260V263.75H101.799V260H115.361ZM105.517 284V257.219C105.517 255.719 105.845 254.474 106.502 253.484C107.158 252.484 108.028 251.74 109.111 251.25C110.194 250.75 111.372 250.5 112.642 250.5C113.58 250.5 114.382 250.578 115.049 250.734C115.715 250.88 116.21 251.016 116.533 251.141L115.439 254.922C115.22 254.859 114.939 254.786 114.595 254.703C114.252 254.609 113.835 254.562 113.345 254.562C112.21 254.562 111.398 254.844 110.908 255.406C110.429 255.969 110.189 256.781 110.189 257.844V284H105.517ZM128.419 293.5C126.512 293.5 124.872 293.25 123.497 292.75C122.132 292.25 121.018 291.589 120.153 290.766C119.288 289.943 118.643 289.042 118.215 288.063L122.231 286.406C122.512 286.865 122.887 287.349 123.356 287.859C123.835 288.38 124.481 288.823 125.294 289.188C126.117 289.552 127.174 289.734 128.465 289.734C130.236 289.734 131.7 289.302 132.856 288.438C134.012 287.583 134.59 286.219 134.59 284.344V279.625H134.294C134.012 280.135 133.606 280.703 133.075 281.328C132.554 281.953 131.835 282.495 130.919 282.953C130.002 283.411 128.809 283.641 127.34 283.641C125.445 283.641 123.736 283.198 122.215 282.312C120.705 281.417 119.507 280.099 118.622 278.359C117.747 276.609 117.309 274.458 117.309 271.906C117.309 269.354 117.742 267.167 118.606 265.344C119.481 263.521 120.679 262.125 122.2 261.156C123.721 260.177 125.445 259.688 127.372 259.688C128.861 259.688 130.064 259.938 130.981 260.437C131.898 260.927 132.611 261.5 133.122 262.156C133.643 262.812 134.044 263.391 134.325 263.891H134.669V260H139.247V284.531C139.247 286.594 138.768 288.286 137.809 289.609C136.851 290.932 135.554 291.911 133.919 292.547C132.294 293.182 130.46 293.5 128.419 293.5ZM128.372 279.766C129.715 279.766 130.851 279.453 131.778 278.828C132.715 278.193 133.424 277.286 133.903 276.109C134.393 274.922 134.637 273.5 134.637 271.844C134.637 270.229 134.398 268.807 133.919 267.578C133.439 266.349 132.736 265.391 131.809 264.703C130.882 264.005 129.736 263.656 128.372 263.656C126.965 263.656 125.794 264.021 124.856 264.75C123.919 265.469 123.21 266.448 122.731 267.687C122.262 268.927 122.028 270.312 122.028 271.844C122.028 273.417 122.268 274.797 122.747 275.984C123.226 277.172 123.934 278.099 124.872 278.766C125.82 279.432 126.986 279.766 128.372 279.766ZM144.632 284V260H149.148V263.812H149.398C149.835 262.521 150.606 261.505 151.71 260.766C152.825 260.016 154.085 259.641 155.492 259.641C155.783 259.641 156.127 259.651 156.523 259.672C156.929 259.693 157.247 259.719 157.476 259.75V264.219C157.289 264.167 156.955 264.109 156.476 264.047C155.997 263.974 155.518 263.937 155.039 263.937C153.934 263.937 152.95 264.172 152.085 264.641C151.231 265.099 150.554 265.74 150.054 266.562C149.554 267.375 149.304 268.302 149.304 269.344V284H144.632ZM160.639 284V260H165.311V284H160.639ZM162.998 256.297C162.186 256.297 161.488 256.026 160.905 255.484C160.332 254.932 160.045 254.276 160.045 253.516C160.045 252.745 160.332 252.089 160.905 251.547C161.488 250.995 162.186 250.719 162.998 250.719C163.811 250.719 164.504 250.995 165.077 251.547C165.66 252.089 165.952 252.745 165.952 253.516C165.952 254.276 165.66 254.932 165.077 255.484C164.504 256.026 163.811 256.297 162.998 256.297ZM179.7 284.469C177.763 284.469 176.034 283.974 174.513 282.984C173.003 281.984 171.815 280.562 170.95 278.719C170.096 276.865 169.669 274.641 169.669 272.047C169.669 269.453 170.102 267.234 170.966 265.391C171.841 263.547 173.039 262.135 174.56 261.156C176.081 260.177 177.805 259.688 179.732 259.688C181.221 259.688 182.419 259.938 183.325 260.437C184.242 260.927 184.95 261.5 185.45 262.156C185.961 262.812 186.357 263.391 186.638 263.891H186.919V252H191.591V284H187.029V280.266H186.638C186.357 280.776 185.95 281.359 185.419 282.016C184.898 282.672 184.18 283.245 183.263 283.734C182.346 284.224 181.159 284.469 179.7 284.469ZM180.732 280.484C182.075 280.484 183.211 280.13 184.138 279.422C185.075 278.703 185.784 277.708 186.263 276.438C186.753 275.167 186.997 273.687 186.997 272C186.997 270.333 186.758 268.875 186.279 267.625C185.799 266.375 185.096 265.401 184.169 264.703C183.242 264.005 182.096 263.656 180.732 263.656C179.325 263.656 178.154 264.021 177.216 264.75C176.279 265.479 175.57 266.474 175.091 267.734C174.622 268.995 174.388 270.417 174.388 272C174.388 273.604 174.628 275.047 175.107 276.328C175.586 277.609 176.294 278.625 177.232 279.375C178.18 280.115 179.346 280.484 180.732 280.484ZM224.332 262.406H219.457C219.27 261.365 218.921 260.448 218.41 259.656C217.9 258.865 217.275 258.193 216.535 257.641C215.796 257.089 214.968 256.672 214.051 256.391C213.145 256.109 212.181 255.969 211.16 255.969C209.317 255.969 207.666 256.432 206.207 257.359C204.759 258.286 203.613 259.646 202.77 261.437C201.936 263.229 201.52 265.417 201.52 268C201.52 270.604 201.936 272.802 202.77 274.594C203.613 276.385 204.764 277.74 206.223 278.656C207.681 279.573 209.322 280.031 211.145 280.031C212.155 280.031 213.113 279.896 214.02 279.625C214.936 279.344 215.764 278.932 216.504 278.391C217.244 277.849 217.869 277.187 218.379 276.406C218.9 275.615 219.259 274.708 219.457 273.688L224.332 273.703C224.072 275.276 223.567 276.724 222.817 278.047C222.077 279.359 221.124 280.495 219.957 281.453C218.801 282.401 217.478 283.135 215.988 283.656C214.499 284.177 212.874 284.437 211.113 284.437C208.343 284.437 205.874 283.781 203.707 282.469C201.541 281.146 199.832 279.255 198.582 276.797C197.343 274.339 196.723 271.406 196.723 268C196.723 264.583 197.348 261.651 198.598 259.203C199.848 256.745 201.556 254.859 203.723 253.547C205.889 252.224 208.353 251.562 211.113 251.562C212.811 251.562 214.395 251.807 215.863 252.297C217.343 252.776 218.671 253.484 219.848 254.422C221.025 255.349 221.999 256.484 222.77 257.828C223.541 259.161 224.061 260.687 224.332 262.406ZM235.839 284.531C234.318 284.531 232.943 284.25 231.714 283.687C230.485 283.115 229.511 282.286 228.792 281.203C228.084 280.12 227.73 278.792 227.73 277.219C227.73 275.865 227.99 274.75 228.511 273.875C229.032 273 229.735 272.307 230.62 271.797C231.506 271.286 232.495 270.901 233.589 270.641C234.683 270.38 235.797 270.182 236.933 270.047C238.37 269.88 239.537 269.745 240.433 269.641C241.328 269.526 241.98 269.344 242.386 269.094C242.792 268.844 242.995 268.437 242.995 267.875V267.766C242.995 266.401 242.61 265.344 241.839 264.594C241.078 263.844 239.943 263.469 238.433 263.469C236.86 263.469 235.62 263.818 234.714 264.516C233.818 265.203 233.198 265.969 232.855 266.812L228.464 265.812C228.985 264.354 229.745 263.177 230.745 262.281C231.756 261.375 232.917 260.719 234.23 260.312C235.542 259.896 236.922 259.688 238.37 259.688C239.328 259.688 240.344 259.802 241.417 260.031C242.5 260.25 243.511 260.656 244.448 261.25C245.396 261.844 246.172 262.693 246.776 263.797C247.381 264.891 247.683 266.313 247.683 268.063V284H243.12V280.719H242.933C242.631 281.323 242.177 281.917 241.573 282.5C240.969 283.083 240.193 283.568 239.245 283.953C238.297 284.339 237.162 284.531 235.839 284.531ZM236.855 280.781C238.146 280.781 239.25 280.526 240.167 280.016C241.094 279.505 241.797 278.839 242.276 278.016C242.766 277.182 243.011 276.292 243.011 275.344V272.25C242.844 272.417 242.521 272.573 242.042 272.719C241.573 272.854 241.037 272.974 240.433 273.078C239.828 273.172 239.24 273.26 238.667 273.344C238.094 273.417 237.615 273.479 237.23 273.531C236.323 273.646 235.495 273.839 234.745 274.109C234.006 274.38 233.412 274.771 232.964 275.281C232.526 275.781 232.308 276.448 232.308 277.281C232.308 278.437 232.735 279.312 233.589 279.906C234.443 280.49 235.532 280.781 236.855 280.781ZM253.025 284V260H257.541V263.812H257.791C258.228 262.521 258.999 261.505 260.103 260.766C261.218 260.016 262.478 259.641 263.885 259.641C264.176 259.641 264.52 259.651 264.916 259.672C265.322 259.693 265.64 259.719 265.869 259.75V264.219C265.682 264.167 265.348 264.109 264.869 264.047C264.39 263.974 263.911 263.937 263.432 263.937C262.327 263.937 261.343 264.172 260.478 264.641C259.624 265.099 258.947 265.74 258.447 266.562C257.947 267.375 257.697 268.302 257.697 269.344V284H253.025ZM278.516 284.484C276.152 284.484 274.115 283.979 272.407 282.969C270.709 281.948 269.397 280.516 268.47 278.672C267.553 276.818 267.095 274.646 267.095 272.156C267.095 269.698 267.553 267.531 268.47 265.656C269.397 263.781 270.688 262.318 272.345 261.266C274.011 260.214 275.959 259.688 278.188 259.688C279.542 259.688 280.855 259.911 282.126 260.359C283.397 260.807 284.537 261.51 285.548 262.469C286.558 263.427 287.355 264.672 287.938 266.203C288.522 267.724 288.813 269.573 288.813 271.75V273.406H269.735V269.906H284.235C284.235 268.677 283.985 267.589 283.485 266.641C282.985 265.682 282.282 264.927 281.376 264.375C280.48 263.823 279.428 263.547 278.22 263.547C276.907 263.547 275.761 263.87 274.782 264.516C273.813 265.151 273.063 265.984 272.532 267.016C272.011 268.036 271.751 269.146 271.751 270.344V273.078C271.751 274.682 272.032 276.047 272.595 277.172C273.167 278.297 273.964 279.156 274.985 279.75C276.006 280.333 277.199 280.625 278.563 280.625C279.449 280.625 280.256 280.5 280.985 280.25C281.714 279.99 282.345 279.604 282.876 279.094C283.407 278.583 283.813 277.953 284.095 277.203L288.516 278C288.162 279.302 287.527 280.443 286.61 281.422C285.704 282.391 284.563 283.146 283.188 283.687C281.824 284.219 280.266 284.484 278.516 284.484Z" fill="#212121"/>
</g>
<defs>
<filter id="filter0_d_2692_2972" x="0" y="0" width="364" height="364" filterUnits="userSpaceOnUse" color-interpolation-filters="sRGB">
<feFlood flood-opacity="0" result="BackgroundImageFix"/>
<feColorMatrix in="SourceAlpha" type="matrix" values="0 0 0 0 0 0 0 0 0 0 0 0 0 0 0 0 0 0 127 0" result="hardAlpha"/>
<feOffset dx="10" dy="10"/>
<feGaussianBlur stdDeviation="10"/>
<feComposite in2="hardAlpha" operator="out"/>
<feColorMatrix type="matrix" values="0 0 0 0 0 0 0 0 0 0 0 0 0 0 0 0 0 0 0.25 0"/>
<feBlend mode="normal" in2="BackgroundImageFix" result="effect1_dropShadow_2692_2972"/>
<feBlend mode="normal" in="SourceGraphic" in2="effect1_dropShadow_2692_2972" result="shape"/>
</filter>
</defs>
</svg>
