<svg width="177" height="177" viewBox="0 0 177 177" fill="none" xmlns="http://www.w3.org/2000/svg">
<path d="M169.98 88.1389C169.98 133.125 133.512 169.593 88.5256 169.593C43.5395 169.593 7.07113 133.125 7.07113 88.1389C7.07113 43.1528 43.5395 6.68441 88.5256 6.68441C133.512 6.68441 169.98 43.1528 169.98 88.1389Z" fill="#212121" stroke="#212121" stroke-width="13.3688"/>
<mask id="path-2-inside-1_1541_485" fill="white">
<path fill-rule="evenodd" clip-rule="evenodd" d="M111.084 2.90556C110.479 4.91589 110.154 7.04743 110.154 9.25491V26.9186C110.154 39.0689 120.004 48.9186 132.154 48.9186H167.481C169.028 52.0279 170.397 55.2416 171.574 58.5461H132.154C120.004 58.5461 110.154 68.3959 110.154 80.5462V98.2098C110.154 110.36 120.004 120.21 132.154 120.21H170.642C169.348 123.521 167.859 126.735 166.189 129.837H132.154C120.004 129.837 110.154 139.687 110.154 151.837V169.501C110.154 170.868 110.278 172.205 110.517 173.503C106.984 174.411 103.365 175.105 99.675 175.571C100.227 173.643 100.523 171.606 100.523 169.501V151.837C100.523 139.687 90.6732 129.837 78.5229 129.837H10.857C9.13745 126.642 7.60933 123.328 6.28801 119.912C7.46939 120.108 8.68259 120.21 9.91963 120.21H78.5229C90.6732 120.21 100.523 110.36 100.523 98.2098V80.5461C100.523 68.3959 90.6732 58.5461 78.5229 58.5461H9.91962C8.33532 58.5461 6.79012 58.7136 5.30078 59.0318C6.51626 55.5553 7.94342 52.1781 9.56682 48.9158C9.6842 48.9177 9.80181 48.9186 9.91963 48.9186H78.5229C90.6732 48.9186 100.523 39.0689 100.523 26.9186V9.25491C100.523 6.17366 99.8895 3.24036 98.7457 0.578125C102.956 1.0644 107.076 1.84736 111.084 2.90556Z"/>
</mask>
<path fill-rule="evenodd" clip-rule="evenodd" d="M111.084 2.90556C110.479 4.91589 110.154 7.04743 110.154 9.25491V26.9186C110.154 39.0689 120.004 48.9186 132.154 48.9186H167.481C169.028 52.0279 170.397 55.2416 171.574 58.5461H132.154C120.004 58.5461 110.154 68.3959 110.154 80.5462V98.2098C110.154 110.36 120.004 120.21 132.154 120.21H170.642C169.348 123.521 167.859 126.735 166.189 129.837H132.154C120.004 129.837 110.154 139.687 110.154 151.837V169.501C110.154 170.868 110.278 172.205 110.517 173.503C106.984 174.411 103.365 175.105 99.675 175.571C100.227 173.643 100.523 171.606 100.523 169.501V151.837C100.523 139.687 90.6732 129.837 78.5229 129.837H10.857C9.13745 126.642 7.60933 123.328 6.28801 119.912C7.46939 120.108 8.68259 120.21 9.91963 120.21H78.5229C90.6732 120.21 100.523 110.36 100.523 98.2098V80.5461C100.523 68.3959 90.6732 58.5461 78.5229 58.5461H9.91962C8.33532 58.5461 6.79012 58.7136 5.30078 59.0318C6.51626 55.5553 7.94342 52.1781 9.56682 48.9158C9.6842 48.9177 9.80181 48.9186 9.91963 48.9186H78.5229C90.6732 48.9186 100.523 39.0689 100.523 26.9186V9.25491C100.523 6.17366 99.8895 3.24036 98.7457 0.578125C102.956 1.0644 107.076 1.84736 111.084 2.90556Z" fill="#F4F4F4"/>
<path d="M111.084 2.90556L123.886 6.758L127.872 -6.48897L114.497 -10.0203L111.084 2.90556ZM167.481 48.9186L179.45 42.9631L175.761 35.5498H167.481V48.9186ZM171.574 58.5461V71.915H190.529L184.168 54.0597L171.574 58.5461ZM170.642 120.21L183.093 125.077L190.223 106.841H170.642V120.21ZM166.189 129.837V143.206H174.177L177.962 136.172L166.189 129.837ZM110.517 173.503L113.843 186.452L125.919 183.35L123.666 171.087L110.517 173.503ZM99.675 175.571L86.8229 171.89L81.2425 191.373L101.35 188.834L99.675 175.571ZM10.857 129.837L-0.915477 136.173L2.86956 143.206H10.857V129.837ZM6.28801 119.912L8.47857 106.723L-14.6303 102.885L-6.18087 124.734L6.28801 119.912ZM5.30078 59.0318L-7.31897 54.6196L-15.1703 77.076L8.094 72.1056L5.30078 59.0318ZM9.56682 48.9158L9.77707 35.5487L1.35195 35.4162L-2.40198 42.9599L9.56682 48.9158ZM98.7457 0.578125L100.28 -12.7024L77.3519 -15.3505L86.4625 5.85532L98.7457 0.578125ZM123.523 9.25491C123.523 8.36643 123.653 7.53228 123.886 6.758L98.2822 -0.946882C97.3052 2.29951 96.785 5.72844 96.785 9.25491H123.523ZM123.523 26.9186V9.25491H96.785V26.9186H123.523ZM132.154 35.5498C127.387 35.5498 123.523 31.6855 123.523 26.9186H96.785C96.785 46.4523 112.62 62.2874 132.154 62.2874V35.5498ZM167.481 35.5498H132.154V62.2874H167.481V35.5498ZM184.168 54.0597C182.81 50.25 181.233 46.5459 179.45 42.9631L155.512 54.8741C156.823 57.5099 157.983 60.2332 158.981 63.0326L184.168 54.0597ZM132.154 71.915H171.574V45.1773H132.154V71.915ZM123.523 80.5462C123.523 75.7793 127.387 71.915 132.154 71.915V45.1773C112.62 45.1773 96.785 61.0125 96.785 80.5462H123.523ZM123.523 98.2098V80.5462H96.785V98.2098H123.523ZM132.154 106.841C127.387 106.841 123.523 102.977 123.523 98.2098H96.785C96.785 117.744 112.62 133.579 132.154 133.579V106.841ZM170.642 106.841H132.154V133.579H170.642V106.841ZM177.962 136.172C179.885 132.598 181.601 128.895 183.093 125.077L158.191 115.342C157.094 118.148 155.832 120.872 154.417 123.502L177.962 136.172ZM132.154 143.206H166.189V116.469H132.154V143.206ZM123.523 151.837C123.523 147.071 127.387 143.206 132.154 143.206V116.469C112.62 116.469 96.785 132.304 96.785 151.837H123.523ZM123.523 169.501V151.837H96.785V169.501H123.523ZM123.666 171.087C123.573 170.582 123.523 170.053 123.523 169.501H96.785C96.785 171.682 96.984 173.829 97.3683 175.92L123.666 171.087ZM101.35 188.834C105.599 188.298 109.77 187.498 113.843 186.452L107.191 160.555C104.198 161.324 101.131 161.912 98.0004 162.307L101.35 188.834ZM87.1541 169.501C87.1541 170.349 87.0357 171.147 86.8229 171.89L112.527 179.252C113.419 176.139 113.892 172.864 113.892 169.501H87.1541ZM87.1541 151.837V169.501H113.892V151.837H87.1541ZM78.5229 143.206C83.2898 143.206 87.1541 147.071 87.1541 151.837H113.892C113.892 132.304 98.0566 116.469 78.5229 116.469V143.206ZM10.857 143.206H78.5229V116.469H10.857V143.206ZM-6.18087 124.734C-4.65768 128.672 -2.89652 132.491 -0.915477 136.173L22.6295 123.502C21.1714 120.793 19.8763 117.984 18.7569 115.089L-6.18087 124.734ZM9.91963 106.841C9.41947 106.841 8.9389 106.8 8.47857 106.723L4.09746 133.1C5.99989 133.416 7.94571 133.579 9.91963 133.579V106.841ZM78.5229 106.841H9.91963V133.579H78.5229V106.841ZM87.1541 98.2098C87.1541 102.977 83.2898 106.841 78.5229 106.841V133.579C98.0566 133.579 113.892 117.743 113.892 98.2098H87.1541ZM87.1541 80.5461V98.2098H113.892V80.5461H87.1541ZM78.5229 71.915C83.2898 71.915 87.1541 75.7793 87.1541 80.5461H113.892C113.892 61.0125 98.0566 45.1773 78.5229 45.1773V71.915ZM9.91962 71.915H78.5229V45.1773H9.91962V71.915ZM8.094 72.1056C8.67087 71.9823 9.27994 71.915 9.91962 71.915V45.1773C7.3907 45.1773 4.90938 45.4449 2.50756 45.958L8.094 72.1056ZM-2.40198 42.9599C-4.2726 46.719 -5.91765 50.6116 -7.31897 54.6196L17.9205 63.444C18.9502 60.499 20.1594 57.6373 21.5356 54.8718L-2.40198 42.9599ZM9.91963 35.5498C9.87193 35.5498 9.82441 35.5494 9.77707 35.5487L9.35657 62.283C9.54399 62.286 9.73169 62.2874 9.91963 62.2874V35.5498ZM78.5229 35.5498H9.91963V62.2874H78.5229V35.5498ZM87.1541 26.9186C87.1541 31.6855 83.2898 35.5498 78.5229 35.5498V62.2874C98.0566 62.2874 113.892 46.4523 113.892 26.9186H87.1541ZM87.1541 9.25491V26.9186H113.892V9.25491H87.1541ZM86.4625 5.85532C86.9033 6.88117 87.1541 8.02138 87.1541 9.25491H113.892C113.892 4.32594 112.876 -0.400457 111.029 -4.69907L86.4625 5.85532ZM114.497 -10.0203C109.875 -11.2404 105.128 -12.1424 100.28 -12.7024L97.2118 13.8587C100.784 14.2712 104.276 14.9351 107.671 15.8315L114.497 -10.0203Z" fill="#F4F4F4" mask="url(#path-2-inside-1_1541_485)"/>
</svg>
