<svg width="126" height="120" viewBox="0 0 126 120" fill="none" xmlns="http://www.w3.org/2000/svg">
<g clip-path="url(#clip0_1738_150)">
<path d="M6.88734 119.931C7.12402 119.931 7.36895 119.926 7.62203 119.915C11.8618 119.741 16.1611 119.401 20.3178 119.073C22.1175 118.931 23.9177 118.788 25.7179 118.659C30.4618 118.316 32.2541 116.327 31.9052 111.791C31.8274 110.779 31.7736 109.771 31.7219 108.798C31.7093 108.559 31.6968 108.323 31.6841 108.091H94.5398C94.5783 108.289 94.6013 108.49 94.608 108.691V109.14C94.6269 109.721 94.6013 110.303 94.5311 110.881C94.0465 114.134 94.3313 116.146 95.4538 117.405C96.8006 118.916 99.2263 119.254 102.703 119.311C103.564 119.326 104.223 119.32 104.838 119.296C106.386 119.235 107.933 119.165 109.481 119.095C112.599 118.955 115.824 118.81 118.994 118.736C123.286 118.635 125.147 116.905 125.217 112.952C125.319 107.13 125.352 101.32 125.376 95.8694C125.393 92.0721 123.993 90.7055 120.031 90.6497C118.381 90.6272 116.719 90.6326 114.959 90.6379C114.293 90.6379 113.607 90.6423 112.899 90.6428V28.9284C113.309 28.901 113.72 28.8739 114.133 28.8471C115.427 28.7624 116.765 28.6747 118.091 28.5611C122.015 28.2231 124.366 27.1406 124.775 22.6217C125.265 17.209 125.227 11.6753 125.189 6.32382L125.185 5.79186C125.187 4.60372 124.749 3.45332 123.949 2.54459C123.148 1.63586 122.037 1.0275 120.812 0.82731C118.381 0.36253 115.899 0.175394 113.422 0.269894C110.059 0.357567 106.647 0.54029 103.347 0.717596C101.278 0.82829 99.2084 0.938988 97.1382 1.02862C93.6613 1.1785 92.6776 2.13014 92.5608 5.45586C92.5173 6.7019 92.4579 7.9475 92.3964 9.16856L92.3406 10.3543C81.0562 11.5788 36.2531 11.9559 29.4508 10.897C29.4144 10.4562 29.3796 10.013 29.3437 9.56676C29.2413 8.28007 29.1353 6.95027 29.0016 5.63027C28.6143 1.80349 27.2874 0.628928 23.3223 0.603459C18.4078 0.571622 13.0571 0.570662 6.48535 0.60005C4.67234 0.607886 3.46269 0.991877 2.68041 1.802C1.87713 2.63465 1.57229 3.87972 1.72086 5.71746L1.76038 6.20084C1.88573 7.43615 1.94331 8.67685 1.93298 9.9179C1.86075 12.575 1.75772 15.2768 1.65782 17.8893C1.57483 20.0846 1.49081 22.2799 1.42319 24.4761C1.37606 26.0097 1.7087 27.1063 2.44077 27.8307C3.16362 28.5453 4.27112 28.8966 5.82746 28.9034C7.31875 28.9034 8.84124 28.8001 10.4519 28.6835C11.0528 28.6404 11.6753 28.5953 12.329 28.5542L10.9684 91.4789L10.9464 92.4801L9.66567 92.6388C8.18412 92.821 6.58775 93.0174 4.99399 93.2294C2.96069 93.4988 1.97151 94.6224 1.8752 96.7663C1.60266 102.963 1.26029 108.052 0.803831 112.783C0.540512 115.504 0.946346 117.302 2.08057 118.442C3.08313 119.452 4.62196 119.931 6.88734 119.931ZM7.33207 22.1883L6.50461 6.57602H22.5861V20.953L7.33207 22.1883ZM29.7195 17.8291C29.6877 17.4569 29.6572 17.0885 29.6282 16.7241H92.4292C92.4845 17.4172 92.5352 18.1088 92.5859 18.7999C92.7238 20.667 92.8662 22.5972 93.0952 24.4883C93.546 28.2108 95.2606 29.6014 99.2058 29.5034C100.74 29.4588 102.274 29.3892 103.898 29.3158C104.479 29.2893 105.073 29.2627 105.68 29.2359C104.362 52.9859 104.334 72.6423 105.593 91.0019L103.788 91.1635C102.093 91.3158 100.474 91.4613 98.8554 91.6043C96.4958 91.8115 95.2355 93.0556 95.1095 95.3028C95.0373 96.5997 94.9046 97.9129 94.7642 99.3034C94.713 99.8128 94.6618 100.335 94.608 100.877L31.4212 102.407C31.3346 101.699 31.2552 101.03 31.1783 100.388C30.9821 98.7406 30.8132 97.3183 30.6068 95.8719C30.1626 92.7543 28.8367 91.5044 25.8182 91.5044C25.5317 91.5044 25.2301 91.5152 24.9135 91.5377C24.4227 91.5715 23.9319 91.5901 23.4411 91.6092C22.8776 91.6312 22.3188 91.6528 21.7594 91.6954C21.056 91.7493 20.3624 91.8277 19.4839 91.9271C19.2072 91.9579 18.9124 91.9912 18.5943 92.025V27.9507C19.0041 27.915 19.4274 27.8768 19.8638 27.8371C21.289 27.7093 22.9054 27.5633 24.4925 27.456C28.2394 27.2033 30.0289 25.3435 29.9644 21.77C29.9398 20.4363 29.8276 19.1109 29.719 17.8296L29.7195 17.8291ZM117.387 21.5668L101.118 22.2088L99.6034 6.74064H104.065C108.339 6.74064 112.474 6.74059 116.607 6.74353C117.933 6.74353 118.41 7.21178 118.432 8.52737C118.503 12.9213 118.474 17.2277 117.387 21.5668H117.387ZM7.21275 112.953V98.7044L24.0672 97.6695V111.582L7.21275 112.953ZM100.52 97.089H119.058L117.918 111.802H101.313L100.52 97.089Z" fill="black"/>
</g>
<defs>
<clipPath id="clip0_1738_150">
<rect width="125" height="120" fill="white" transform="translate(0.5)"/>
</clipPath>
</defs>
</svg>
