<svg width="64" height="116" viewBox="0 0 64 116" fill="none" xmlns="http://www.w3.org/2000/svg">
<g clip-path="url(#clip0_1738_153)">
<path d="M62.8457 83.354C62.2666 64.7937 61.5781 45.8469 60.742 25.4309C60.525 20.1409 60.0902 14.7749 59.67 9.5859C59.5682 8.33204 59.4677 7.07808 59.3682 5.82389C59.065 1.98265 56.9985 0.0899963 53.0489 0.0444704C52.8905 0.0397281 52.7292 0.0472314 52.5698 0.0529221L48.3755 0.12841C44.7679 0.19164 41.1604 0.259286 37.5531 0.331369C36.5578 0.330881 35.5647 0.425048 34.5872 0.612594C32.2292 1.12286 31.4997 1.95747 31.3332 4.33383C31.2457 5.8844 31.2385 7.4384 31.3116 8.98975C31.7271 21.488 32.152 33.9864 32.5986 47.1178L32.9786 58.3039C33.0135 60.4735 33.0573 62.7564 33.1026 65.1195C33.2139 70.9558 33.3291 76.9908 33.3559 83.1582C33.3767 87.8881 33.3228 92.7001 33.2705 97.3533C33.2313 100.887 33.1908 104.541 33.1828 108.135C33.171 113.243 35.1281 115.275 40.1623 115.382C40.7122 115.394 41.2616 115.4 41.8106 115.4C44.8585 115.4 47.8941 115.233 50.84 115.071C54.1779 114.888 56.8664 114.637 59.3022 114.28C61.9257 113.896 62.9594 112.594 62.8717 109.782L62.8674 109.631C62.7731 106.666 62.6788 103.6 62.6911 100.59C62.6995 98.4691 62.7491 96.3095 62.7962 94.221C62.8759 90.6586 62.9594 86.9753 62.8457 83.354ZM39.5399 100.267C39.8545 100.218 40.1601 100.173 40.459 100.125C41.3895 99.9829 42.268 99.8525 43.132 99.6405C45.6078 99.0344 46.128 97.5567 46.1285 96.4243C46.1285 95.2539 45.6026 93.7605 43.0909 93.2943C42.293 93.1454 41.4823 92.9667 40.6245 92.777C40.3359 92.7134 40.0388 92.6475 39.7308 92.5806V86.4631C39.8831 86.447 40.0346 86.4318 40.1855 86.4157C40.8596 86.3616 41.53 86.2677 42.1931 86.134L42.6307 86.0391C43.5692 85.9011 44.4743 85.5905 45.3008 85.1224C45.7389 84.846 46.0902 84.4505 46.3138 83.9814C46.5375 83.5124 46.6242 82.9894 46.5642 82.4729C46.4863 81.883 46.2461 81.3262 45.8708 80.8658C45.4955 80.4053 44.9999 80.0596 44.4397 79.867C43.3079 79.4815 42.1462 79.1917 40.9664 79.0006C40.5472 78.9195 40.1209 78.838 39.6889 78.7464V72.8698L40.4599 72.7218C41.3362 72.553 42.2402 72.379 43.1457 72.2158C43.7904 72.0992 45.7531 71.7454 45.863 69.7024C45.9785 67.539 43.9323 67.0444 43.1622 66.8571C42.2312 66.6318 41.2856 66.4853 40.2854 66.3297C39.9624 66.2799 39.6328 66.2282 39.2951 66.1732V60.2079L39.4403 60.1922C39.9863 60.1429 40.5291 60.0628 41.0659 59.9509C41.2408 59.912 41.4225 59.8774 41.6054 59.8423C42.3824 59.7678 43.126 59.4885 43.7615 59.0328C44.4246 58.448 45.2929 57.133 45.0514 56.166C44.8647 55.6188 44.5594 55.1199 44.1576 54.7054C43.7558 54.2914 43.2674 53.9718 42.7279 53.7707C41.7538 53.5094 40.747 53.3918 39.7393 53.4222C39.429 53.4155 39.1121 53.4084 38.7896 53.3942V46.8114C38.9839 46.7877 39.1824 46.764 39.3838 46.7413C40.2289 46.6426 41.1032 46.5406 41.9865 46.387C43.937 46.0474 45.0344 44.9534 44.9207 43.461C44.7792 41.5864 43.3687 41.1013 42.0091 40.8736C41.7572 40.8314 41.5064 40.7831 41.2546 40.7352C40.8674 40.6612 40.4803 40.5867 40.0903 40.5331C39.6498 40.4715 39.2079 40.4335 38.6962 40.3908L38.3378 40.3591V33.7905L38.941 33.6222C39.7347 33.4007 40.5939 33.1622 41.4484 32.9075C42.3812 32.6301 44.5656 31.9809 44.3454 29.6571C44.1402 27.479 42.176 27.2101 40.874 27.0323C40.1024 26.927 39.3248 26.8834 38.5014 26.8379C38.2514 26.8232 37.9955 26.8089 37.7323 26.7904L37.2659 20.2642C37.5781 20.2167 37.8841 20.1716 38.185 20.1271C39.1593 19.9848 40.0798 19.8468 40.9999 19.6727C43.7993 19.1426 44.0823 17.4785 44.0012 16.5339C43.8097 14.2827 41.7874 13.9378 40.9235 13.7904C40.4717 13.714 40.0143 13.6586 39.5719 13.6055C39.2984 13.5723 39.0244 13.5391 38.7518 13.5012C38.3302 13.4424 37.9091 13.3774 37.3998 13.2996L36.9489 13.2303L36.6382 7.53718L53.8101 6.95635C53.9567 10.0331 54.1048 13.1074 54.2543 16.1791C55.6993 46.0143 57.1933 76.8604 56.2548 107.344L39.5413 108.002L39.5399 100.267Z" fill="black"/>
<path d="M2.30454 85.057C2.42573 89.0206 2.75624 92.9747 3.29481 96.9028C3.83997 101.053 6.36626 104.163 10.5997 105.897C12.1001 106.529 13.7086 106.862 15.3354 106.877C17.9842 106.888 20.5352 105.871 22.4565 104.038C25.6431 101.054 27.4388 97.2954 27.5129 93.4556C27.5567 91.1646 27.4281 88.8414 27.3036 86.5954C27.2352 85.3582 27.1621 84.0792 27.1234 82.8234C26.8932 75.7574 26.6748 68.6862 26.4075 60.0472L26.0434 48.3038L25.9717 44.1405C25.8736 38.5475 25.7392 30.8877 25.6416 23.2019C25.6485 21.4838 25.1054 19.8091 24.0925 18.4255C23.0196 16.9217 21.9935 15.3392 21.0012 13.8089C20.4745 12.9965 19.9477 12.1847 19.4115 11.3789L18.5281 10.0511C17.1478 7.97251 15.7198 5.82288 14.2721 3.73628C13.1096 2.06225 11.9099 1.73269 11.1096 1.75925C10.3093 1.78581 9.14497 2.16515 8.09144 3.87522C7.51539 4.88263 7.03936 5.94466 6.67044 7.04592L6.50637 7.49074C5.04679 11.4406 3.53531 15.5251 2.14081 19.575C1.63907 20.8961 1.35634 22.291 1.30379 23.7041C1.26559 28.5783 1.3009 33.7427 1.41926 40.4487L1.49192 44.5526C1.72394 57.8273 1.9664 71.5557 2.30454 85.057ZM9.2614 17.7118L10.2395 14.7587C10.7035 14.7236 11.1601 14.6615 11.6038 14.6008C12.68 14.4528 13.6968 14.3163 14.3499 14.6553C15.0776 15.0347 15.6085 15.9202 16.2244 16.9459C16.3753 17.1982 16.529 17.4543 16.6908 17.7118H9.2614ZM16.9012 99.9288C16.1546 100.055 15.39 100.022 14.657 99.8316C13.924 99.641 13.2392 99.2972 12.6474 98.8225C10.8144 97.3125 10.0839 95.2928 9.58496 92.5626L21.6189 91.5355C21.7043 93.835 21.0862 96.1061 19.8477 98.0414C19.5212 98.5512 19.0888 98.9837 18.5803 99.3095C18.0718 99.6353 17.4986 99.8468 16.9012 99.9288ZM9.65278 84.7236L8.09233 25.5006H18.191L20.083 84.7236H9.65278Z" fill="black"/>
</g>
<defs>
<clipPath id="clip0_1738_153">
<rect width="62.25" height="115.712" fill="white" transform="translate(0.875)"/>
</clipPath>
</defs>
</svg>
