<svg width="126" height="116" viewBox="0 0 126 116" fill="none" xmlns="http://www.w3.org/2000/svg">
<path d="M110.856 30.1873C110.102 30.0251 109.332 29.9526 108.562 29.9713C107.158 30.0036 105.737 30.062 104.364 30.1186C103.664 30.1468 102.964 30.1742 102.264 30.2009H102.189L102.099 28.7542C102.015 27.3724 101.928 25.943 101.818 24.5337C101.765 23.928 101.596 23.3382 101.322 22.7968C101.07 22.3344 100.684 21.9612 100.216 21.7275C99.7483 21.4938 99.2211 21.411 98.7049 21.4901C98.1892 21.5692 97.7096 21.8064 97.331 22.17C96.9528 22.5334 96.6934 23.0056 96.5888 23.5227C96.4863 24.1389 96.4298 24.7621 96.4199 25.3869C96.4032 26.3872 96.3974 27.3878 96.3916 28.3882C96.3885 29.0558 96.3833 29.7229 96.377 30.3898L96.2625 30.3962C95.628 30.4284 94.9936 30.4588 94.3582 30.4877C93.0757 30.5469 91.7494 30.6077 90.4398 30.6992C89.2447 30.7672 88.0548 30.9087 86.877 31.1226C86.2222 31.2204 85.6291 31.5678 85.2196 32.0938C84.8101 32.6198 84.615 33.2843 84.6746 33.951C84.7128 34.5726 84.9659 35.1608 85.389 35.6132C85.8121 36.0657 86.3786 36.3537 86.99 36.4269C87.7347 36.5343 88.4879 36.5698 89.2389 36.5328C90.9126 36.4752 92.582 36.4053 94.2536 36.3354L96.1516 36.2567C96.1197 36.7303 96.0878 37.2038 96.0548 37.6771C95.934 39.435 95.809 41.2526 95.7306 43.0501C95.7018 43.9387 95.8451 44.8244 96.1526 45.6572C96.3545 46.2101 96.7222 46.6851 97.2044 47.0162C97.6866 47.3472 98.2593 47.5176 98.842 47.5033C98.9246 47.5033 99.0078 47.5001 99.092 47.4932C99.6913 47.4649 100.267 47.2479 100.739 46.8726C101.211 46.4972 101.554 45.9821 101.723 45.3994C101.882 44.9052 101.973 44.3915 101.994 43.8723C102.052 42.2028 102.099 40.5315 102.151 38.8614C102.177 37.966 102.203 37.0702 102.231 36.174H103.785C104.977 36.174 106.204 36.1741 107.419 36.1498C108.743 36.1729 110.057 35.9248 111.283 35.4203C111.831 35.2123 112.301 34.8354 112.627 34.3431C112.953 33.8508 113.118 33.2678 113.099 32.6758C113.058 32.0658 112.814 31.4876 112.406 31.0358C111.999 30.5839 111.453 30.2849 110.856 30.1873Z" fill="black"/>
<path d="M35.529 41.5739L72.5581 39.3579C72.7605 37.8619 72.9733 36.3728 73.1627 34.881C74.8243 21.79 86.067 12.4468 95.8933 11.0163C106.674 9.44727 119.838 13.1851 124.018 26.4548C125.238 30.1615 125.474 34.1276 124.701 37.9556C123.881 41.9559 122.693 45.8437 120.498 49.3167C117.587 53.919 113.577 57.1237 108.259 58.3627C106.787 58.706 106.189 59.3884 105.867 60.7776C104.764 65.5239 103.681 70.2802 102.362 74.9678C101.604 77.5499 100.625 80.0606 99.4373 82.4718C98.6166 84.1853 96.8128 84.5588 95.0596 84.5879C93.3614 84.6154 91.6601 84.4773 89.9613 84.4419C75.9153 84.1472 61.8687 83.8578 47.8224 83.5738C47.3878 83.5648 46.952 83.6108 46.0864 83.651C47.1685 87.6492 48.1937 91.4359 49.3161 95.5839C50.313 95.5839 51.3589 95.5908 52.4054 95.5839C66.546 95.4781 80.6867 95.3479 94.8279 95.303C96.5126 95.322 98.1867 95.5791 99.8008 96.0663C100.508 96.2383 101.139 96.644 101.593 97.2185C102.048 97.7936 102.299 98.5051 102.31 99.2409C102.32 99.9768 102.087 100.695 101.649 101.282C101.21 101.87 100.591 102.292 99.8886 102.484C98.1151 102.984 96.317 103.39 94.5016 103.701C96.8463 108.636 96.5774 111.946 93.6245 114.074C91.0853 115.904 87.5204 115.82 85.4132 113.879C82.7401 111.416 82.7924 107.895 85.682 103.426H63.1888C64.6533 105.72 66.2673 107.743 65.2615 110.295C64.794 111.547 64.0324 112.665 63.0424 113.552C61.841 114.522 60.3379 115.031 58.8008 114.987C57.2636 114.944 55.7919 114.349 54.6465 113.312C52.0106 110.961 51.9614 108.114 54.4833 103.289C52.1821 103.063 49.8758 102.909 47.5928 102.59C45.574 102.307 44.3788 101.206 43.7057 99.068C42.3051 94.6163 40.2016 90.3763 38.983 85.8834C34.8842 70.7331 31.0404 55.5124 27.1141 40.3144C25.1738 32.8025 23.214 25.2943 21.3934 17.7522C21.301 17.1837 21.069 16.6476 20.7187 16.1933C20.3685 15.739 19.9112 15.3809 19.3887 15.1515C15.9902 13.5447 12.5971 11.927 9.20939 10.2987C7.27685 9.36554 5.30991 8.48283 3.47309 7.3809C2.56875 6.81767 1.82633 6.0241 1.32026 5.07967C1.08726 4.63985 0.961596 4.15015 0.953538 3.65123C0.945481 3.15232 1.05536 2.65872 1.27404 2.21143C1.49271 1.76415 1.81363 1.37617 2.21051 1.07979C2.60738 0.783415 3.06859 0.587083 3.55558 0.507389C4.51977 0.338259 5.51126 0.433077 6.42706 0.781971C12.13 3.13184 17.8066 5.54619 23.4569 8.02513C26.0249 9.15563 27.7978 10.9232 27.1849 14.1364C27.1669 14.5872 27.2506 15.0362 27.43 15.4494C29.9646 23.7273 32.5055 32.0032 35.0525 40.277C35.1582 40.6124 35.2963 40.9402 35.529 41.5739ZM98.8379 59.0684C97.8761 58.8917 97.0073 58.7462 96.1418 58.5706C93.3447 58.0014 90.489 57.6263 87.7668 56.8016C82.5921 55.2336 78.0628 52.5393 75.2003 47.7121C74.3112 46.2155 73.2908 45.8853 71.7317 45.9282C62.7029 46.1768 53.6721 46.3403 44.6424 46.5561C42.0964 46.6175 39.5521 46.7595 36.6635 46.8785C39.3238 57.1063 41.8991 67.0057 44.3894 76.5771H93.6888C95.4461 70.6003 97.0968 64.988 98.8379 59.0684ZM101.311 51.9971C108.717 51.9971 113.441 48.9644 116.201 42.0962C116.726 40.7548 117.162 39.3792 117.504 37.9788C119.672 29.4332 115.823 21.7222 107.551 19.0364C103.697 17.7843 99.533 17.3549 95.4697 16.9809C93.6941 16.8847 91.9357 17.3741 90.4582 18.3757C83.5147 23.2426 79.3776 29.7294 79.6972 38.6496C79.8164 41.9787 81.0011 44.7127 83.6386 46.5494C85.5853 47.9706 87.7495 49.0585 90.0445 49.7694C93.7233 50.7947 97.5481 51.2824 101.311 51.9971Z" fill="black"/>
</svg>
