<svg width="30" height="30" viewBox="0 0 30 30" fill="none" xmlns="http://www.w3.org/2000/svg">
<path d="M19.9375 24.9209L17.5903 22.5738L16.3125 23.8516L19.9375 27.4766L27.1875 20.2266L25.9097 18.9488L19.9375 24.9209ZM8.15625 15.6953H14.5V17.5078H8.15625V15.6953ZM8.15625 11.1641H19.0312V12.9766H8.15625V11.1641ZM8.15625 6.63281H19.0312V8.44531H8.15625V6.63281Z" fill="#212121"/>
<path d="M14.5 27.4766H5.4375C4.43791 27.4766 3.625 26.6637 3.625 25.6641V3.91406C3.625 2.91447 4.43791 2.10156 5.4375 2.10156H21.75C22.7496 2.10156 23.5625 2.91447 23.5625 3.91406V17.5078H21.75V3.91406H5.4375V25.6641H14.5V27.4766Z" fill="#212121"/>
</svg>
