<svg width="30" height="30" viewBox="0 0 30 30" fill="none" xmlns="http://www.w3.org/2000/svg">
<path d="M12.082 7.78203C12.082 5.4862 10.632 3.43203 8.45703 2.70703V7.17786H4.83203V2.70703C2.65703 3.43203 1.20703 5.4862 1.20703 7.78203C1.20703 10.0779 2.65703 12.132 4.83203 12.857V26.1487C4.83203 26.632 5.0737 26.8737 5.4362 26.8737H7.85286C8.21536 26.8737 8.45703 26.632 8.45703 26.2695V12.9779C10.632 12.2529 12.082 10.1987 12.082 7.78203ZM19.332 9.95703C14.6195 10.0779 10.8737 13.8237 10.8737 18.4154C10.8737 23.1279 14.6195 26.8737 19.332 26.8737C24.0445 26.8737 27.7904 23.1279 27.7904 18.4154C27.7904 13.7029 24.0445 9.95703 19.332 9.95703ZM19.332 24.457C15.9487 24.457 13.2904 21.7987 13.2904 18.4154C13.2904 15.032 15.9487 12.3737 19.332 12.3737C22.7154 12.3737 25.3737 15.032 25.3737 18.4154C25.3737 21.7987 22.7154 24.457 19.332 24.457ZM18.1237 13.582V19.6237L22.4737 22.282L23.4404 20.832L19.9362 18.7779V13.582H18.1237Z" fill="#212121"/>
</svg>
