<svg width="40" height="40" viewBox="0 0 40 40" fill="none" xmlns="http://www.w3.org/2000/svg">
<path d="M4.875 19.7891C4.875 21.7096 5.25329 23.6114 5.98826 25.3858C6.72324 27.1602 7.80051 28.7724 9.15856 30.1305C10.5166 31.4886 12.1289 32.5658 13.9033 33.3008C15.6776 34.0358 17.5794 34.4141 19.5 34.4141C21.4206 34.4141 23.3224 34.0358 25.0967 33.3008C26.8711 32.5658 28.4834 31.4886 29.8414 30.1305C31.1995 28.7724 32.2768 27.1602 33.0117 25.3858C33.7467 23.6114 34.125 21.7096 34.125 19.7891C34.125 17.8685 33.7467 15.9667 33.0117 14.1923C32.2768 12.4179 31.1995 10.8057 29.8414 9.44763C28.4834 8.08957 26.8711 7.0123 25.0967 6.27732C23.3224 5.54235 21.4206 5.16406 19.5 5.16406C17.5794 5.16406 15.6776 5.54235 13.9033 6.27732C12.1289 7.0123 10.5166 8.08957 9.15856 9.44763C7.80051 10.8057 6.72324 12.4179 5.98826 14.1923C5.25329 15.9667 4.875 17.8685 4.875 19.7891Z" stroke="#212121" stroke-width="2.34" stroke-linecap="round" stroke-linejoin="round"/>
<path d="M24.375 13.2891H14.625H16.25C17.5429 13.2891 18.7829 13.8027 19.6971 14.7169C20.6114 15.6312 21.125 16.8711 21.125 18.1641C21.125 19.457 20.6114 20.697 19.6971 21.6112C18.7829 22.5254 17.5429 23.0391 16.25 23.0391H14.625L19.5 27.9141M14.625 18.1641H24.375" stroke="#212121" stroke-width="2.34" stroke-linecap="round" stroke-linejoin="round"/>
</svg>
