<svg width="80" height="77" viewBox="0 0 80 77" fill="none" xmlns="http://www.w3.org/2000/svg">
<g clip-path="url(#clip0_1742_249)">
<path d="M78.4598 46.5367C78.0061 49.7994 76.5239 52.7257 75.0272 55.5992C72.5008 60.5185 68.9588 64.8437 64.6358 68.2878C59.5269 72.3437 53.685 74.7722 47.2999 75.8931C43.3418 76.588 39.3544 77.0938 35.312 76.8883C25.5663 76.3924 17.1539 72.9809 10.3167 65.8189C7.41574 62.7296 4.94997 59.2582 2.98778 55.5006C1.85474 53.3888 1.42932 51.1799 1.04767 48.916C0.342292 44.7277 -0.0918138 40.5433 0.371897 36.2625C0.944374 30.9757 2.40244 26.0207 5.03795 21.4152C8.23304 15.7252 12.6108 10.7881 17.8754 6.93756C23.1181 3.13396 29.0517 1.18535 35.4626 0.410516C42.2586 -0.465438 49.165 0.254935 55.6351 2.51441C61.9829 4.74516 67.6481 8.14894 71.4791 13.8576C75.3101 19.5662 77.9685 25.731 78.8705 32.7083C79.6196 38.4975 78.8534 43.7064 78.4598 46.5367ZM74.7572 37.9063C74.7251 33.8424 74.3428 29.8229 72.8699 26.0438C71.6564 22.9299 70.2144 18.1862 67.7591 15.728C64.3481 10.9785 59.5996 8.07864 54.2224 6.16202C48.0912 3.93169 41.504 3.25432 35.0478 4.19027C28.4509 5.14295 22.5405 7.56677 17.5703 12.0721C16.1037 13.4044 14.7065 14.8111 13.3841 16.2869C7.76807 22.5429 4.73996 30.0149 4.74318 42.3062C4.74511 49.9695 8.52172 56.52 13.9308 62.1184C19.6723 68.0613 26.5938 71.0405 34.689 71.7061C38.6204 72.0282 42.4958 71.6001 46.3619 71.0024C57.9221 69.216 66.1736 62.9596 71.4942 52.5701C74.7009 46.308 74.5635 40.2079 74.7572 37.9063Z" fill="black"/>
<path d="M43.1891 37.1635C43.981 37.1635 44.5751 37.1635 45.1691 37.1635C50.1759 37.1703 55.1825 37.1687 60.189 37.1958C60.8442 37.2009 61.4961 37.2856 62.131 37.448C62.4596 37.5163 62.7547 37.6967 62.9651 37.9583C63.1759 38.22 63.2895 38.547 63.2866 38.883C63.3194 39.2184 63.2374 39.555 63.0539 39.8379C62.8705 40.1205 62.5963 40.3325 62.2768 40.4385C61.4472 40.7139 60.58 40.8592 59.706 40.8689C54.8101 40.8251 49.9146 40.7142 45.0195 40.6289C43.9743 40.6105 42.9278 40.6327 41.8842 40.5796C41.3381 40.5609 40.7978 40.4633 40.2797 40.2896C39.4611 39.9964 39.1293 39.3692 39.1908 38.4732C39.3195 36.6091 39.4093 34.7417 39.4778 32.8744C39.7005 26.822 39.8997 20.7687 40.1285 14.7163C40.1803 14.1138 40.2759 13.5158 40.4145 12.9272C40.5655 12.1192 41.0372 11.6507 41.8832 11.6523C42.7585 11.654 43.1601 12.2252 43.3114 12.9872C43.4346 13.5793 43.4999 14.1822 43.5064 14.7871C43.5006 21.2848 43.4803 27.7825 43.4456 34.2804C43.4407 35.1519 43.2946 36.0227 43.1891 37.1635Z" fill="black"/>
</g>
<defs>
<clipPath id="clip0_1742_249">
<rect width="79.4839" height="77" fill="white"/>
</clipPath>
</defs>
</svg>
