<svg width="80" height="80" viewBox="0 0 80 80" fill="none" xmlns="http://www.w3.org/2000/svg">
<g clip-path="url(#clip0_1742_254)">
<path d="M44.0611 32.3747C42.2774 32.3747 40.755 32.3747 39.2326 32.3747C37.6297 32.3747 36.0262 32.4055 34.424 32.3702C33.8841 32.3581 33.2506 32.3303 32.8357 32.0463C32.3928 31.7428 31.9026 31.1276 31.9042 30.6501C31.9058 30.1726 32.3992 29.5285 32.8506 29.2786C33.3953 28.977 34.1197 28.946 34.7717 28.9162C37.8087 28.7776 40.8458 28.6827 43.8828 28.562C44.2007 28.5328 44.5167 28.4855 44.8294 28.4204C44.8055 25.7537 43.7633 24.4002 41.3126 23.891C40.5553 23.7402 39.7854 23.6619 39.0135 23.6572C35.2011 23.6038 31.3886 23.6012 27.5742 23.5404C26.4147 23.5105 25.2575 23.4216 24.1069 23.2738C23.9253 23.2674 23.7468 23.2239 23.5821 23.1462C23.4175 23.0685 23.27 22.958 23.1485 22.8213C23.0269 22.6846 22.9337 22.5245 22.8746 22.3507C22.8154 22.1768 22.7914 21.9926 22.8041 21.8091C22.7885 20.9048 23.362 20.5234 24.1236 20.3497C24.4492 20.2895 24.78 20.2623 25.111 20.2686C32.2934 20.1281 39.4762 19.9884 46.6594 19.8493C47.6526 19.829 48.6445 19.7351 49.6377 19.6857C50.6858 19.6327 51.7361 19.534 52.7833 19.5585C54.179 19.5912 54.9751 20.2411 55.0559 21.2744C55.1405 22.3573 54.4963 23.1034 53.1051 23.3134C51.9074 23.4942 50.689 23.5482 49.4774 23.6136C48.6729 23.6571 47.8645 23.6218 46.9996 23.6218C47.5844 25.2526 48.1046 26.7032 48.6865 28.3252C49.785 28.2526 50.9271 28.1335 52.0721 28.1139C53.1668 28.0744 54.2633 28.1181 55.3515 28.2448C56.283 28.3717 56.7673 29.103 56.8232 30.0267C56.8787 30.9425 56.504 31.7696 55.6074 32.0019C54.3945 32.3159 53.1034 32.6668 51.8883 32.5504C49.5714 32.328 47.9143 32.5922 46.8349 35.1513C46.2184 36.6137 44.643 37.7788 43.2854 38.7819C40.2548 41.0188 36.7393 42.2074 33.1133 43.0666C32.523 43.2063 31.9314 43.3401 31.0937 43.5337C31.6151 43.935 31.9659 44.2533 32.3611 44.5022C38.1589 48.1861 43.9603 51.865 49.7646 55.5391C50.0044 55.6784 50.236 55.8315 50.4586 55.997C51.4644 56.8062 51.7668 58.003 51.2211 58.9607C50.6754 59.9184 49.479 60.2314 48.2972 59.7129C48.0474 59.5942 47.808 59.4539 47.5822 59.2933C41.3084 55.1126 35.0243 50.9479 28.7741 46.7312C27.5339 45.8919 26.368 44.9454 25.2899 43.9017C23.563 42.2306 24.1245 40.1854 26.4737 39.6745C28.9514 39.1355 31.4854 38.8643 33.9662 38.3374C36.7293 37.748 39.3518 36.616 41.6845 35.0051C42.6945 34.3588 43.5151 33.4505 44.0611 32.3747Z" fill="black"/>
<path d="M79.2139 36.4485C78.3047 28.3722 75.1023 20.7361 69.9945 14.4645C65.7847 9.23481 61.2563 5.50779 56.1502 3.07431C52.1658 1.13099 47.8012 0.119044 43.3784 0.113281C42.0198 0.115523 40.6625 0.205292 39.3149 0.382107C33.7074 1.11836 28.0235 2.76523 21.4335 5.5683C12.5194 9.36241 6.31287 15.8827 2.9912 24.9437C0.661223 31.1659 -0.236764 37.8441 0.365461 44.4704C1.06592 51.9147 2.83547 57.6844 5.93259 62.6233C10.408 69.7536 16.0453 74.4471 23.1701 76.9712C27.4891 78.5036 32.2434 79.2732 38.1263 79.3942C41.5892 79.3942 44.8126 78.971 47.9301 78.5608L48.521 78.4836C55.3269 77.593 61.107 75.1059 66.194 70.8879C70.9774 66.9937 74.5979 61.8308 76.6518 55.9754C79.0876 48.9815 79.9244 42.5923 79.2139 36.4485ZM71.1796 58.6542C67.3284 66.5489 60.8514 71.7281 51.9206 74.0471C50.8483 74.3261 49.7394 74.5276 48.5676 74.7396C47.986 74.8436 47.3789 74.9544 46.7415 75.0787C43.9629 75.5023 40.2151 75.5664 38.1496 75.5664C37.23 75.5664 36.6423 75.5527 36.6259 75.5527C31.2008 75.4873 26.5332 74.5544 22.3598 72.7028C16.7992 70.2357 12.3538 66.0717 8.77462 59.9749C6.61347 56.2982 5.24225 51.9455 4.46199 46.2792C3.46102 39.0713 4.33643 31.724 7.00173 24.964C9.80711 17.7614 14.8528 12.2969 21.998 8.72392C23.648 7.89739 30.3543 5.90745 32.1171 5.54472C34.5994 5.04324 37.1163 4.73651 39.6451 4.62726C49.648 4.38522 53.5987 6.01506 59.709 10.7374C66.1062 15.6812 70.6149 21.8954 73.1114 29.2056C76.5016 39.1642 75.8541 49.0721 71.1796 58.6542Z" fill="black"/>
</g>
<defs>
<clipPath id="clip0_1742_254">
<rect width="79.48" height="79.48" fill="white"/>
</clipPath>
</defs>
</svg>
