<svg width="49" height="71" viewBox="0 0 49 71" fill="none" xmlns="http://www.w3.org/2000/svg">
<g clip-path="url(#clip0_1742_246)">
<path d="M13.379 45.6551C11.5418 50.9585 9.6121 56.3302 7.74612 61.5253C7.04821 63.4678 6.35132 65.4105 5.6554 67.3532C5.26142 68.4561 4.94921 69.7054 6.24366 70.5778C6.59979 70.8364 7.02645 70.9799 7.46689 70.9896C8.27712 70.9896 8.98117 70.4542 9.5898 69.8708C10.7477 68.7644 11.9439 67.6571 13.1018 66.587C15.6848 64.1976 18.3569 61.7271 20.7686 59.0921C24.9509 54.5224 29.0487 49.7393 33.0119 45.1137C34.5887 43.2736 36.1688 41.4362 37.7509 39.6017C40.3083 36.6475 42.8964 33.6345 45.3992 30.7202L46.9766 28.884C47.747 27.9873 48.3839 26.9789 47.8299 25.6787C47.2898 24.4116 46.1672 24.2108 45.0358 24.1824C42.6957 24.1244 40.3562 24.0617 38.0166 23.9942C36.3986 23.9489 34.7805 23.9044 33.1627 23.861C32.731 23.8495 32.3035 23.8525 31.8098 23.8555L31.4425 23.8575C31.487 23.7279 31.5292 23.6031 31.5702 23.4833C31.7275 23.0197 31.8638 22.6194 32.0155 22.231C32.7251 20.4057 33.4359 18.5809 34.1484 16.7564C35.5438 13.1768 36.9885 9.47617 38.3916 5.82943C38.7951 4.77683 39.1181 3.69532 39.3577 2.5942C39.4278 2.3491 39.4456 2.0921 39.4097 1.83977C39.3737 1.58745 39.2855 1.34543 39.1502 1.12926C39.0053 0.939912 38.8212 0.783514 38.611 0.670523C38.4005 0.557533 38.1683 0.490518 37.9299 0.473963C37.6405 0.4358 37.3513 0.39084 37.0621 0.345873C36.2985 0.207167 35.5257 0.12744 34.7499 0.107422H34.7247C31.1875 0.119255 27.5916 0.159497 24.1147 0.197956C22.0638 0.220636 20.0129 0.241644 17.962 0.260972C15.1768 0.284343 14.7956 0.56126 13.8803 3.22317C13.7876 3.49327 13.6853 3.7802 13.5668 4.05148L11.2836 9.2774C8.89124 14.7598 6.41744 20.4282 3.96361 25.9941C3.4868 27.0771 2.96587 28.1652 2.46205 29.2172C1.89112 30.4096 1.30083 31.6429 0.769692 32.8792C0.0423039 34.5693 -0.0645894 35.6704 0.423799 36.4505C0.912189 37.2306 1.94223 37.6137 3.7714 37.7054L6.00998 37.8161C7.44457 37.8865 8.87901 37.9589 10.3132 38.0335C11.5141 38.0977 12.7143 38.1702 13.9841 38.2465L15.439 38.3335C15.24 39.0618 15.053 39.786 14.869 40.4892C14.4011 42.2861 13.9585 43.9833 13.379 45.6551ZM27.2353 24.3794C27.0349 25.382 27.1205 26.0748 27.5026 26.5603C27.8847 27.0457 28.5261 27.2845 29.5284 27.3259C32.3424 27.4416 35.2036 27.5114 37.9709 27.5791C39.0682 27.6057 40.1655 27.6334 41.2629 27.6623H41.3344C41.4876 27.6623 41.6402 27.6737 41.7913 27.6963C38.7897 31.1574 35.844 34.7456 32.9923 38.2205C26.7839 45.7858 20.3724 53.5982 13.0888 60.4257C13.3761 59.5595 13.6658 58.6939 13.958 57.8292C14.908 55.0049 15.888 52.0847 16.7332 49.1746C17.4473 46.7141 18.0161 44.172 18.5662 41.7137C18.78 40.759 18.9936 39.8047 19.2154 38.8527C19.3135 38.3852 19.3617 37.9087 19.3589 37.4309C19.3886 35.0938 18.6105 34.2924 16.2734 34.2578C13.7358 34.2202 11.1562 34.2087 8.66145 34.1986C7.64132 34.1942 6.62131 34.1891 5.60118 34.1835C5.39484 34.1835 5.18901 34.182 4.96099 34.182H4.05176C4.72808 32.7404 5.40544 31.306 6.08334 29.8786C10.3414 20.8832 14.3648 12.3839 17.2343 3.33349H35.515C35.4904 3.41188 35.4672 3.48584 35.4455 3.55566C35.3476 3.87131 35.2769 4.0994 35.1872 4.31684C34.3975 6.23836 33.6063 8.15921 32.8139 10.0794C31.2997 13.7539 29.7324 17.5533 28.2065 21.2971C27.7849 22.2913 27.4595 23.3235 27.2353 24.3794Z" fill="black"/>
</g>
<defs>
<clipPath id="clip0_1742_246">
<rect width="48.0968" height="71" fill="white"/>
</clipPath>
</defs>
</svg>
