<?xml version="1.0" encoding="UTF-8"?>
<svg version="1.1" xmlns="http://www.w3.org/2000/svg" width="96" height="96">
<path d="M0 0 C1.52548015 -0.00150337 3.0509595 -0.00493574 4.57643127 -0.01020813 C7.77017739 -0.01453567 10.96291245 0.00226444 14.15649414 0.03442383 C18.2401859 0.07417298 22.32197868 0.06491631 26.40573025 0.04018879 C29.55523603 0.02597021 32.70430216 0.03612064 35.85377693 0.0537014 C37.35878511 0.05953172 38.86383865 0.05827767 40.36883354 0.0496769 C53.54378703 -0.00053788 53.54378703 -0.00053788 57.54589844 2.60888672 C60.64393451 7.29806134 60.50858302 11.39090113 60.4609375 16.90625 C60.47310555 18.53188118 60.47310555 18.53188118 60.48551941 20.19035339 C60.49397458 22.48081836 60.4871273 24.77138385 60.46606445 27.06176758 C60.44155568 30.55293281 60.48610409 34.03851488 60.53710938 37.52929688 C60.53673874 39.75911921 60.53231344 41.9889453 60.5234375 44.21875 C60.54939751 45.77382011 60.54939751 45.77382011 60.57588196 47.36030579 C60.44884299 53.99835505 59.14589294 57.42306866 54.41279602 62.12068176 C53.8241124 62.66222397 53.23542877 63.20376617 52.62890625 63.76171875 C51.89244873 64.54087646 51.15599121 65.32003418 50.3972168 66.12280273 C49.46582886 67.05588257 49.46582886 67.05588257 48.515625 68.0078125 C47.82533203 68.69939453 47.13503906 69.39097656 46.42382812 70.10351562 C45.72837891 70.79509766 45.03292969 71.48667969 44.31640625 72.19921875 C43.60162109 72.91787109 42.88683594 73.63652344 42.15039062 74.37695312 C41.12461914 75.40079102 41.12461914 75.40079102 40.078125 76.4453125 C39.46283936 77.05947021 38.84755371 77.67362793 38.21362305 78.30639648 C35.49318146 80.80470988 33.59341005 80.90007511 29.99902344 80.95458984 C28.55677399 80.97868423 28.55677399 80.97868423 27.08538818 81.00326538 C22.68111856 81.04771901 18.27700017 81.08878909 13.87255859 81.11181641 C11.55051648 81.12836765 9.22852513 81.15564641 6.90673828 81.19384766 C3.55865039 81.24865621 0.21175756 81.27049831 -3.13671875 81.28515625 C-4.17129211 81.30782562 -5.20586548 81.330495 -6.27178955 81.35385132 C-10.75078417 81.34074672 -13.87778029 80.97392032 -18.02563477 79.18969727 C-22.53954244 74.56496454 -21.20122146 66.4223724 -21.1328125 60.390625 C-21.13431587 58.86514485 -21.13774824 57.3396655 -21.14302063 55.81419373 C-21.14734817 52.62044761 -21.13054806 49.42771255 -21.09838867 46.23413086 C-21.05863952 42.1504391 -21.06789619 38.06864632 -21.09262371 33.98489475 C-21.10684229 30.83538897 -21.09669186 27.68632284 -21.0791111 24.53684807 C-21.07328078 23.03183989 -21.07453483 21.52678635 -21.0831356 20.02179146 C-21.13324994 6.87319121 -21.13324994 6.87319121 -18.78808594 2.84033203 C-12.98495228 -0.68981086 -6.59897089 -0.07484211 0 0 Z M35.62890625 56.76171875 C35.95890625 57.42171875 36.28890625 58.08171875 36.62890625 58.76171875 C36.95890625 58.10171875 37.28890625 57.44171875 37.62890625 56.76171875 C36.96890625 56.76171875 36.30890625 56.76171875 35.62890625 56.76171875 Z " fill="#FDCA00" transform="translate(28.37109375,7.23828125)"/>
<path d="M0 0 C1.52548015 -0.00150337 3.0509595 -0.00493574 4.57643127 -0.01020813 C7.77017739 -0.01453567 10.96291245 0.00226444 14.15649414 0.03442383 C18.2401859 0.07417298 22.32197868 0.06491631 26.40573025 0.04018879 C29.55523603 0.02597021 32.70430216 0.03612064 35.85377693 0.0537014 C37.35878511 0.05953172 38.86383865 0.05827767 40.36883354 0.0496769 C53.54378703 -0.00053788 53.54378703 -0.00053788 57.54589844 2.60888672 C60.64393451 7.29806134 60.50858302 11.39090113 60.4609375 16.90625 C60.47310555 18.53188118 60.47310555 18.53188118 60.48551941 20.19035339 C60.49397458 22.48081836 60.4871273 24.77138385 60.46606445 27.06176758 C60.44155568 30.55293281 60.48610409 34.03851488 60.53710938 37.52929688 C60.53673874 39.75911921 60.53231344 41.9889453 60.5234375 44.21875 C60.54939751 45.77382011 60.54939751 45.77382011 60.57588196 47.36030579 C60.44884299 53.99835505 59.14589294 57.42306866 54.41279602 62.12068176 C53.8241124 62.66222397 53.23542877 63.20376617 52.62890625 63.76171875 C51.89244873 64.54087646 51.15599121 65.32003418 50.3972168 66.12280273 C49.46582886 67.05588257 49.46582886 67.05588257 48.515625 68.0078125 C47.82533203 68.69939453 47.13503906 69.39097656 46.42382812 70.10351562 C45.72837891 70.79509766 45.03292969 71.48667969 44.31640625 72.19921875 C43.60162109 72.91787109 42.88683594 73.63652344 42.15039062 74.37695312 C41.12461914 75.40079102 41.12461914 75.40079102 40.078125 76.4453125 C39.46283936 77.05947021 38.84755371 77.67362793 38.21362305 78.30639648 C35.49318146 80.80470988 33.59341005 80.90007511 29.99902344 80.95458984 C28.55677399 80.97868423 28.55677399 80.97868423 27.08538818 81.00326538 C22.68111856 81.04771901 18.27700017 81.08878909 13.87255859 81.11181641 C11.55051648 81.12836765 9.22852513 81.15564641 6.90673828 81.19384766 C3.55865039 81.24865621 0.21175756 81.27049831 -3.13671875 81.28515625 C-4.17129211 81.30782562 -5.20586548 81.330495 -6.27178955 81.35385132 C-10.75078417 81.34074672 -13.87778029 80.97392032 -18.02563477 79.18969727 C-22.53954244 74.56496454 -21.20122146 66.4223724 -21.1328125 60.390625 C-21.13431587 58.86514485 -21.13774824 57.3396655 -21.14302063 55.81419373 C-21.14734817 52.62044761 -21.13054806 49.42771255 -21.09838867 46.23413086 C-21.05863952 42.1504391 -21.06789619 38.06864632 -21.09262371 33.98489475 C-21.10684229 30.83538897 -21.09669186 27.68632284 -21.0791111 24.53684807 C-21.07328078 23.03183989 -21.07453483 21.52678635 -21.0831356 20.02179146 C-21.13324994 6.87319121 -21.13324994 6.87319121 -18.78808594 2.84033203 C-12.98495228 -0.68981086 -6.59897089 -0.07484211 0 0 Z M-15.23608398 6.401474 C-16.69041799 9.42575125 -16.75889782 11.67112307 -16.77514648 15.02734375 C-16.78783066 16.29545898 -16.80051483 17.56357422 -16.81358337 18.87011719 C-16.81153201 20.2506527 -16.80854405 21.6311871 -16.8046875 23.01171875 C-16.80924982 24.43131765 -16.81455554 25.85091433 -16.8205719 27.27050781 C-16.82949911 30.24292994 -16.82708409 33.21508332 -16.81713867 36.1875 C-16.80564186 39.99426629 -16.82587194 43.80010594 -16.85505581 47.60675049 C-16.87341147 50.53733192 -16.87312686 53.46769094 -16.86741829 56.39831543 C-16.86726503 57.80173036 -16.87331307 59.20516032 -16.88570976 60.60852051 C-16.90060499 62.57099311 -16.88732025 64.53361832 -16.87280273 66.49609375 C-16.87263657 67.61209961 -16.8724704 68.72810547 -16.87229919 69.87792969 C-16.2500192 73.4583462 -15.28193144 74.63264111 -12.37109375 76.76171875 C-10.22633355 77.37692595 -10.22633355 77.37692595 -7.91308594 77.3269043 C-7.03827576 77.34919601 -6.16346558 77.37148773 -5.262146 77.39445496 C-4.3235675 77.3957692 -3.38498901 77.39708344 -2.41796875 77.3984375 C-1.44377991 77.40937943 -0.46959106 77.42032135 0.53411865 77.43159485 C2.59512039 77.44745394 4.65622767 77.45265816 6.71728516 77.44799805 C9.85499735 77.44920952 12.98800605 77.5088945 16.125 77.57226562 C18.13149906 77.58041113 20.13801584 77.58508005 22.14453125 77.5859375 C23.5402536 77.62130867 23.5402536 77.62130867 24.96417236 77.65739441 C31.25169088 77.56966541 34.41288296 76.05530084 38.87556458 71.62295532 C39.45416733 71.00874725 40.03277008 70.39453918 40.62890625 69.76171875 C41.895277 68.53319207 43.16441192 67.30750183 44.4375 66.0859375 C45.64973679 64.87629929 46.85938903 63.66406527 48.06640625 62.44921875 C48.68966797 61.82982422 49.31292969 61.21042969 49.95507812 60.57226562 C50.54740234 59.97865234 51.13972656 59.38503906 51.75 58.7734375 C52.54555298 57.97619263 52.54555298 57.97619263 53.35717773 57.1628418 C55.67906182 54.60471303 55.76487217 52.70985987 55.8059082 49.35961914 C55.81874344 48.44849869 55.83157867 47.53737823 55.84480286 46.59864807 C55.85218979 45.61218796 55.85957672 44.62572784 55.8671875 43.609375 C55.87929512 42.09276527 55.87929512 42.09276527 55.89164734 40.54551697 C55.90549094 38.40446694 55.91621185 36.26339481 55.92407227 34.12231445 C55.94131865 30.840887 55.9852065 27.56045819 56.02929688 24.27929688 C56.0394206 22.20183034 56.0479377 20.12435523 56.0546875 18.046875 C56.08094963 16.57022118 56.08094963 16.57022118 56.10774231 15.06373596 C56.10481674 14.14946335 56.10189117 13.23519073 56.09887695 12.29321289 C56.10767632 11.08647667 56.10767632 11.08647667 56.11665344 9.85536194 C55.78190961 7.63511319 55.78190961 7.63511319 53.99786377 6.00375366 C50.93188197 4.39627172 48.71498156 4.37410789 45.25561523 4.35766602 C43.96425156 4.34498184 42.67288788 4.33229767 41.34239197 4.31922913 C39.93659301 4.32128027 38.53079516 4.32426804 37.125 4.328125 C35.68058527 4.32356326 34.23617271 4.31825771 32.79176331 4.3122406 C29.76806811 4.30331384 26.74463711 4.30572859 23.72094727 4.31567383 C19.84458704 4.32718091 15.96913541 4.30692455 12.09289455 4.27775669 C9.1117422 4.25942217 6.1308089 4.25968124 3.14961433 4.26539421 C1.72025335 4.26554767 0.29087774 4.25948285 -1.13842964 4.24710274 C-3.13463486 4.23224429 -5.13098968 4.24547308 -7.12719727 4.26000977 C-8.83118431 4.26025902 -8.83118431 4.26025902 -10.56959534 4.26051331 C-13.42229322 4.52140799 -13.42229322 4.52140799 -15.23608398 6.401474 Z " fill="#212120" transform="translate(28.37109375,7.23828125)"/>
<path d="M0 0 C1.16781006 0.00523682 2.33562012 0.01047363 3.53881836 0.01586914 C4.79887695 0.0190918 6.05893555 0.02231445 7.35717773 0.02563477 C8.6976732 0.03399136 10.03816799 0.04245632 11.37866211 0.05102539 C12.72306153 0.05603879 14.06746271 0.06060197 15.41186523 0.06469727 C18.71334151 0.07653051 22.01473014 0.09301568 25.31616211 0.11352539 C25.64616211 1.76352539 25.97616211 3.41352539 26.31616211 5.11352539 C23.54998648 6.49661321 21.30598211 6.22562735 18.21459961 6.21118164 C17.00288086 6.20795898 15.79116211 6.20473633 14.54272461 6.20141602 C13.27170898 6.19303711 12.00069336 6.1846582 10.69116211 6.17602539 C9.41241211 6.17151367 8.13366211 6.16700195 6.81616211 6.16235352 C3.64944919 6.15053742 0.48282855 6.13406354 -2.68383789 6.11352539 C-3.06602556 4.45737882 -3.39778891 2.78895515 -3.68383789 1.11352539 C-2.68383789 0.11352539 -2.68383789 0.11352539 0 0 Z " fill="#252420" transform="translate(36.683837890625,44.886474609375)"/>
<path d="M0 0 C1.16781006 0.00523682 2.33562012 0.01047363 3.53881836 0.01586914 C4.79887695 0.0190918 6.05893555 0.02231445 7.35717773 0.02563477 C8.6976732 0.03399136 10.03816799 0.04245632 11.37866211 0.05102539 C12.72306153 0.05603879 14.06746271 0.06060197 15.41186523 0.06469727 C18.71334151 0.07653051 22.01473014 0.09301568 25.31616211 0.11352539 C25.64616211 1.76352539 25.97616211 3.41352539 26.31616211 5.11352539 C23.54998648 6.49661321 21.30598211 6.22562735 18.21459961 6.21118164 C17.00288086 6.20795898 15.79116211 6.20473633 14.54272461 6.20141602 C13.27170898 6.19303711 12.00069336 6.1846582 10.69116211 6.17602539 C9.41241211 6.17151367 8.13366211 6.16700195 6.81616211 6.16235352 C3.64944919 6.15053742 0.48282855 6.13406354 -2.68383789 6.11352539 C-3.06602556 4.45737882 -3.39778891 2.78895515 -3.68383789 1.11352539 C-2.68383789 0.11352539 -2.68383789 0.11352539 0 0 Z " fill="#252420" transform="translate(36.683837890625,32.886474609375)"/>
<path d="M0 0 C5.28 0 10.56 0 16 0 C11.31645873 5.64426769 6.3792354 11.0058046 1 16 C0.67 16 0.34 16 0 16 C0 10.72 0 5.44 0 0 Z M4 4 C4.33 4.66 4.66 5.32 5 6 C5.33 5.34 5.66 4.68 6 4 C5.34 4 4.68 4 4 4 Z " fill="#212121" transform="translate(60,60)"/>
<path d="M0 0 C1.48831242 0.00667405 2.97660807 0.01863442 4.46484375 0.03515625 C5.22345703 0.03966797 5.98207031 0.04417969 6.76367188 0.04882812 C8.64326246 0.06064945 10.52281274 0.07858547 12.40234375 0.09765625 C12.78453142 1.75380282 13.11629477 3.42222649 13.40234375 5.09765625 C12.40234375 6.09765625 12.40234375 6.09765625 8.8046875 6.1953125 C7.31637508 6.18863845 5.82807943 6.17667808 4.33984375 6.16015625 C3.58123047 6.15564453 2.82261719 6.15113281 2.04101562 6.14648438 C0.16142504 6.13466305 -1.71812524 6.11672703 -3.59765625 6.09765625 C-3.97984392 4.44150968 -4.31160727 2.77308601 -4.59765625 1.09765625 C-3.59765625 0.09765625 -3.59765625 0.09765625 0 0 Z " fill="#2A271F" transform="translate(37.59765625,56.90234375)"/>
</svg>
