<svg width="308" height="196" viewBox="0 0 308 196" fill="none" xmlns="http://www.w3.org/2000/svg">
<g clip-path="url(#clip0_2742_3398)">
<mask id="path-1-inside-1_2742_3398" fill="white">
<path d="M0.96078 133.396C14.0973 138.856 27.5648 143.559 39.8663 150.89C45.7207 154.378 52.1136 156.725 58.4372 159.195C60.4579 159.986 62.5427 160.287 64.6868 159.714C67.9178 158.844 68.4366 158.143 68.3526 154.877C68.1451 147.254 70.4819 140.189 73.1892 133.224C76.0102 125.966 79.508 119.158 86.1281 114.524C87.1755 113.793 86.4147 113.274 85.9651 112.795C83.7962 110.488 81.1186 108.858 78.3124 107.514C64.4991 100.889 50.8834 93.898 37.9346 85.6772C31.2898 81.4631 24.6549 77.2291 18.4053 72.437C19.3291 70.693 20.0801 72.2739 20.6581 72.679C27.6586 77.5602 34.758 82.2881 42.05 86.7246C52.988 93.3793 64.2718 99.3769 75.8323 104.88C80.3874 107.049 85.1499 109.08 88.0845 113.615C88.3612 114.045 88.9837 114.292 89.4925 114.524C94.2699 116.683 98.8051 119.361 103.77 121.134C105.677 121.816 107.411 122.814 107.056 125.358C106.873 126.643 107.797 127.023 108.775 127.364C111.813 128.412 114.753 128.13 117.628 126.766C120.088 125.605 122.331 124.079 124.535 122.513C129.292 119.134 134.613 117.34 140.393 117.197C143.975 117.108 147.176 116.164 150.136 114.277C152.937 112.489 155.718 112.424 158.786 113.724C162.936 115.478 167.175 117.034 171.439 118.491C178.207 120.803 185.054 121.08 191.927 118.832C192.687 118.585 193.537 118.605 194.308 118.378C195.775 117.948 197.193 117.651 196.971 115.413C196.778 113.501 198.492 112.592 200.019 111.96C205.107 109.841 209.806 106.97 214.677 104.441C215.112 104.214 215.7 104.115 215.976 103.769C220.64 97.9491 227.838 96.7783 234.122 94.0512C248.716 87.7275 263.557 81.962 277.395 74.0228C279.737 72.679 281.94 71.0882 284.203 69.6061C284.88 69.1615 285.586 68.376 285.947 69.8778C276.437 77.0068 265.657 81.8039 254.872 86.5418C244.685 91.0227 234.369 95.2023 224.108 99.5103C223.881 99.6042 223.644 99.6783 223.426 99.787C221.668 100.647 219.197 101.151 218.56 102.855C217.755 105.019 220.67 105.557 221.826 106.891C224.75 110.275 227.265 113.897 229.014 117.982C232.858 126.954 236.123 136.114 236.938 145.94C237.096 147.812 237.121 149.71 237.052 151.592C236.958 154.245 237.922 155.44 240.629 155.608C243.247 155.776 245.614 154.848 247.965 153.83C267.203 145.49 286.046 136.326 304.72 126.806C305.373 126.475 306.054 126.203 306.721 125.902C308.139 127.3 306.257 127.359 305.852 127.572C301.732 129.77 297.547 131.855 293.367 133.95C278.803 141.252 264.061 148.173 249.136 154.709C246.873 155.702 244.581 156.542 242.101 156.804C240.851 156.932 239.394 157.095 238.519 156.335C236.306 154.418 234.552 155.564 232.601 156.671C227.749 159.422 222.784 161.962 217.542 163.903C215.848 164.531 214.109 165 212.291 165.168C210.28 165.351 208.64 164.807 207.938 162.787C207.444 161.359 206.693 161.29 205.552 161.922C202.301 163.73 198.922 165.361 197.01 168.839C195.938 170.785 193.107 170.899 192.233 172.282C191.329 173.71 191.551 176.002 190 177.479C188.345 179.051 186.462 180.103 184.195 180.439C183.424 180.552 182.732 180.463 182.397 181.62C181.191 185.755 177.125 188.872 172.812 189.213C171.933 189.282 171.118 189.183 170.391 190.028C166.266 194.815 161.059 195.739 155.205 194.005C153.599 193.531 152.285 193.595 150.61 194.346C147.814 195.596 144.746 196.525 141.52 195.695C140.621 195.462 139.583 195.28 139.148 194.524C137.953 192.454 136.243 192.34 134.084 192.395C131.441 192.464 128.843 191.678 127.01 189.539C126.318 188.729 125.676 189.015 124.866 189.02C121.205 189.06 117.712 188.63 116.22 184.49C115.968 183.793 115.548 183.655 114.782 183.566C110.301 183.052 107.777 178.813 109.289 174.555C109.481 174.016 110.173 173.463 109.249 172.89C105.46 170.543 102.56 167.08 98.8941 164.575C97.7677 163.804 97.076 163.829 96.5573 165.252C95.8261 167.263 94.2056 167.796 92.1999 167.618C88.2871 167.273 84.7349 165.746 81.2025 164.215C77.6702 162.683 74.202 160.993 70.6993 159.388C70.0076 159.072 69.4098 158.563 68.5107 159.245C64.9931 161.917 61.1298 161.67 57.2911 160.139C50.4486 157.412 43.5864 154.709 37.2331 150.9C27.4857 145.051 16.775 141.311 6.35074 136.939C4.83898 136.306 3.33711 135.649 1.85499 134.953C1.24238 134.666 0.298768 134.473 0.950899 133.406L0.96078 133.396ZM188.083 146.039C187.821 146.019 187.564 145.999 187.302 145.975C187.391 146.152 187.485 146.325 187.574 146.503C188.246 147.106 188.928 147.699 189.59 148.311C194.407 152.753 199.288 157.16 198.29 165.44C201.624 162.317 204.875 160.554 208.521 159.472C212.32 158.345 212.355 158.143 212.543 154.013C213.121 141.232 208.205 130.21 201.674 119.667C200.666 118.042 199.752 117.874 197.949 118.521C190.197 121.283 182.258 122.819 174.072 120.581C168.613 119.089 163.381 116.935 158.124 114.86C156.336 114.154 154.473 113.521 152.66 114.499C148.135 116.94 143.199 118.536 138.812 121.248C136.772 122.508 134.766 123.931 133.803 126.188C131.906 130.62 130.068 135.086 128.472 139.631C127.173 143.327 128.615 144.828 132.474 143.944C137.765 142.734 141.663 139.572 143.802 134.632C144.756 132.428 146.02 131.405 148.293 131.173C149.993 131 151.83 131.371 153.377 130.482C156.212 128.846 158.658 129.642 161.528 130.773C168.909 133.678 175.939 137.126 182.09 142.146C184.753 144.32 187.722 144.898 190.958 144.883C192.02 144.883 193.088 144.843 194.095 144.389C194.496 144.206 194.935 144.275 195.093 144.759C195.281 145.337 194.723 145.431 194.397 145.56C192.351 146.36 190.227 146.306 188.093 146.044L188.083 146.039ZM169.413 188.991C165.263 187.859 161.978 185.537 158.495 183.601C155.768 182.084 153.046 180.533 149.75 180.711C149.232 180.74 148.407 181.042 148.417 180.172C148.421 179.426 149.296 179.52 149.8 179.495C152.596 179.357 155.091 180.35 157.522 181.624C160.931 183.418 164.092 185.681 167.684 187.113C172.615 189.08 178.642 187.103 180.741 182.84C181.181 181.946 182.154 180.725 180.188 180.142C177.382 179.312 175.095 177.549 172.778 175.849C167.931 172.287 162.867 169.13 156.983 167.53C156.39 167.367 155.333 167.475 155.501 166.675C155.728 165.598 156.706 166.24 157.359 166.393C162.561 167.623 167.037 170.331 171.384 173.3C174.354 175.325 177.036 177.801 180.559 178.932C184.15 180.088 188.878 178.127 190.37 174.782C190.899 173.591 191.457 172.277 189.842 171.378C188.019 170.36 186.665 168.809 185.173 167.401C179.566 162.13 174.294 156.349 166.286 154.615C165.802 154.512 165.268 154.344 165.555 153.692C165.807 153.109 166.34 153.272 166.834 153.38C170.95 154.265 174.408 156.429 177.683 158.943C181.601 161.952 184.951 165.583 188.597 168.883C191.749 171.739 195.573 170.573 196.714 166.448C197.934 162.041 197.069 157.906 193.937 154.541C184.822 144.749 174.393 136.85 161.657 132.216C158.816 131.183 156.306 130.156 153.352 131.825C152.295 132.423 150.783 132.384 149.489 132.359C147.053 132.305 145.823 133.263 144.731 135.6C142.369 140.659 138.274 144.107 132.676 145.184C127.509 146.182 125.646 143.855 127.326 138.94C128.541 135.373 130.557 132.132 131.501 128.451C132.4 124.938 134.613 122.394 137.656 120.467C138.388 120.008 139.469 119.835 139.845 118.743C138.546 118.6 137.434 118.733 136.283 118.921C131.367 119.736 127.153 122.034 123.235 124.953C117.544 129.192 111.561 130.822 104.931 127.186C104.047 126.702 103.538 126.915 102.911 127.705C100.539 130.674 98.6619 133.94 97.0019 137.324C93.7462 143.954 91.4736 150.816 92.1504 158.385C92.3085 160.168 92.8075 161.226 94.7738 161.468C97.2934 161.774 99.3437 163.222 101.261 164.773C103.558 166.63 105.806 168.557 108.019 170.514C109.63 171.936 111.092 172.801 112.969 170.785C113.705 169.995 114.906 169.56 115.968 169.15C118.873 168.033 120.829 168.508 122.573 170.879C123.102 171.6 123.413 171.274 123.957 171.146C127.509 170.321 129.776 171.319 131.525 174.397C136.733 171.185 138.17 172.208 141.11 181.323C142.977 180.123 144.968 179.293 146.984 180.755C149.083 182.277 149.375 184.554 149.083 186.95C148.975 187.844 148.846 188.749 148.604 189.613C148.328 190.611 148.54 190.982 149.632 191.258C152.809 192.064 155.956 192.997 159.206 193.476C163.43 194.094 166.602 192.315 169.408 189.005L169.413 188.991ZM208.803 162.421C210.794 164.106 211.268 164.274 213.491 163.735C220.912 161.932 227.369 157.97 234.068 154.531C235.333 153.884 235.753 153.079 235.817 151.696C236.212 143.341 234.103 135.466 231.44 127.675C228.935 120.349 226.114 113.205 220.571 107.519C218.479 105.375 216.171 105.011 213.644 106.427C213.002 106.787 212.34 107.109 211.693 107.464C207.83 109.618 203.902 111.649 199.861 113.472C199.194 113.773 196.743 114.603 199.609 115.715C200.617 116.105 201.244 117.068 201.867 117.928C207.395 125.526 210.996 133.994 213.007 143.129C214.252 148.781 214.731 154.482 212.459 160.05C211.881 161.473 211.159 162.762 208.793 162.421H208.803ZM105.88 124.138C105.02 122.943 104.067 122.577 103.168 122.261C99.5215 120.976 96.1373 119.129 92.6692 117.469C88.7235 115.578 85.2751 116.289 82.324 119.603C77.6949 124.8 75.2642 131.144 72.9472 137.541C70.8426 143.356 69.3851 149.295 69.5877 155.539C69.6173 156.409 69.4395 157.397 70.4967 157.891C77.3886 161.097 84.0976 164.778 91.6416 166.339C92.7581 166.571 94.1118 166.833 94.8924 165.306C93.4448 165.104 92.6939 164.249 92.1554 163.044C91.3402 161.231 90.8067 159.368 90.7721 157.372C90.5843 145.382 95.584 135.353 102.639 126.114C103.385 125.141 104.348 124.39 105.88 124.148V124.138ZM134.643 191.09C136.639 191.49 137.805 190.67 137.982 188.343C138.076 187.148 138.506 185.957 138.911 184.811C139.998 181.753 139.593 178.868 137.977 176.126C136.426 173.498 134.885 173.251 132.716 175.345C130.201 177.766 128.467 180.686 127.538 184.07C126.58 187.573 127.647 189.588 131.071 190.591C132.168 190.912 133.279 191.224 134.643 191.09ZM123.507 187.721C124.228 187.479 125.73 188.432 125.824 186.654C126.017 182.988 127.598 179.91 129.594 176.966C130.76 175.242 130.236 173.829 128.556 172.845C126.713 171.763 124.806 171.719 123.013 173.003C120.839 174.555 119.164 176.551 118.023 178.967C115.756 183.764 118.033 187.489 123.507 187.726V187.721ZM150.906 192.918C147.132 192.059 146.845 191.678 147.572 188.506C147.814 187.449 147.937 186.412 147.913 185.345C147.873 183.581 147.26 181.995 145.536 181.387C143.748 180.755 142.35 181.832 141.288 183.181C139.766 185.107 139.262 187.424 138.931 189.801C138.531 192.686 139.573 194.134 142.444 194.549C145.22 194.949 147.735 194.054 150.911 192.913L150.906 192.918ZM118.315 169.881C115.84 170.227 113.498 171.477 111.591 173.488C109.165 176.047 109.946 180.478 113.137 181.941C114.12 182.39 115.538 183.136 115.998 181.096C116.66 178.142 118.226 175.681 120.355 173.567C121.111 172.816 121.57 171.902 121.19 170.929C120.76 169.837 119.624 169.931 118.325 169.881H118.315Z"/>
</mask>
<path d="M0.96078 133.396C14.0973 138.856 27.5648 143.559 39.8663 150.89C45.7207 154.378 52.1136 156.725 58.4372 159.195C60.4579 159.986 62.5427 160.287 64.6868 159.714C67.9178 158.844 68.4366 158.143 68.3526 154.877C68.1451 147.254 70.4819 140.189 73.1892 133.224C76.0102 125.966 79.508 119.158 86.1281 114.524C87.1755 113.793 86.4147 113.274 85.9651 112.795C83.7962 110.488 81.1186 108.858 78.3124 107.514C64.4991 100.889 50.8834 93.898 37.9346 85.6772C31.2898 81.4631 24.6549 77.2291 18.4053 72.437C19.3291 70.693 20.0801 72.2739 20.6581 72.679C27.6586 77.5602 34.758 82.2881 42.05 86.7246C52.988 93.3793 64.2718 99.3769 75.8323 104.88C80.3874 107.049 85.1499 109.08 88.0845 113.615C88.3612 114.045 88.9837 114.292 89.4925 114.524C94.2699 116.683 98.8051 119.361 103.77 121.134C105.677 121.816 107.411 122.814 107.056 125.358C106.873 126.643 107.797 127.023 108.775 127.364C111.813 128.412 114.753 128.13 117.628 126.766C120.088 125.605 122.331 124.079 124.535 122.513C129.292 119.134 134.613 117.34 140.393 117.197C143.975 117.108 147.176 116.164 150.136 114.277C152.937 112.489 155.718 112.424 158.786 113.724C162.936 115.478 167.175 117.034 171.439 118.491C178.207 120.803 185.054 121.08 191.927 118.832C192.687 118.585 193.537 118.605 194.308 118.378C195.775 117.948 197.193 117.651 196.971 115.413C196.778 113.501 198.492 112.592 200.019 111.96C205.107 109.841 209.806 106.97 214.677 104.441C215.112 104.214 215.7 104.115 215.976 103.769C220.64 97.9491 227.838 96.7783 234.122 94.0512C248.716 87.7275 263.557 81.962 277.395 74.0228C279.737 72.679 281.94 71.0882 284.203 69.6061C284.88 69.1615 285.586 68.376 285.947 69.8778C276.437 77.0068 265.657 81.8039 254.872 86.5418C244.685 91.0227 234.369 95.2023 224.108 99.5103C223.881 99.6042 223.644 99.6783 223.426 99.787C221.668 100.647 219.197 101.151 218.56 102.855C217.755 105.019 220.67 105.557 221.826 106.891C224.75 110.275 227.265 113.897 229.014 117.982C232.858 126.954 236.123 136.114 236.938 145.94C237.096 147.812 237.121 149.71 237.052 151.592C236.958 154.245 237.922 155.44 240.629 155.608C243.247 155.776 245.614 154.848 247.965 153.83C267.203 145.49 286.046 136.326 304.72 126.806C305.373 126.475 306.054 126.203 306.721 125.902C308.139 127.3 306.257 127.359 305.852 127.572C301.732 129.77 297.547 131.855 293.367 133.95C278.803 141.252 264.061 148.173 249.136 154.709C246.873 155.702 244.581 156.542 242.101 156.804C240.851 156.932 239.394 157.095 238.519 156.335C236.306 154.418 234.552 155.564 232.601 156.671C227.749 159.422 222.784 161.962 217.542 163.903C215.848 164.531 214.109 165 212.291 165.168C210.28 165.351 208.64 164.807 207.938 162.787C207.444 161.359 206.693 161.29 205.552 161.922C202.301 163.73 198.922 165.361 197.01 168.839C195.938 170.785 193.107 170.899 192.233 172.282C191.329 173.71 191.551 176.002 190 177.479C188.345 179.051 186.462 180.103 184.195 180.439C183.424 180.552 182.732 180.463 182.397 181.62C181.191 185.755 177.125 188.872 172.812 189.213C171.933 189.282 171.118 189.183 170.391 190.028C166.266 194.815 161.059 195.739 155.205 194.005C153.599 193.531 152.285 193.595 150.61 194.346C147.814 195.596 144.746 196.525 141.52 195.695C140.621 195.462 139.583 195.28 139.148 194.524C137.953 192.454 136.243 192.34 134.084 192.395C131.441 192.464 128.843 191.678 127.01 189.539C126.318 188.729 125.676 189.015 124.866 189.02C121.205 189.06 117.712 188.63 116.22 184.49C115.968 183.793 115.548 183.655 114.782 183.566C110.301 183.052 107.777 178.813 109.289 174.555C109.481 174.016 110.173 173.463 109.249 172.89C105.46 170.543 102.56 167.08 98.8941 164.575C97.7677 163.804 97.076 163.829 96.5573 165.252C95.8261 167.263 94.2056 167.796 92.1999 167.618C88.2871 167.273 84.7349 165.746 81.2025 164.215C77.6702 162.683 74.202 160.993 70.6993 159.388C70.0076 159.072 69.4098 158.563 68.5107 159.245C64.9931 161.917 61.1298 161.67 57.2911 160.139C50.4486 157.412 43.5864 154.709 37.2331 150.9C27.4857 145.051 16.775 141.311 6.35074 136.939C4.83898 136.306 3.33711 135.649 1.85499 134.953C1.24238 134.666 0.298768 134.473 0.950899 133.406L0.96078 133.396ZM188.083 146.039C187.821 146.019 187.564 145.999 187.302 145.975C187.391 146.152 187.485 146.325 187.574 146.503C188.246 147.106 188.928 147.699 189.59 148.311C194.407 152.753 199.288 157.16 198.29 165.44C201.624 162.317 204.875 160.554 208.521 159.472C212.32 158.345 212.355 158.143 212.543 154.013C213.121 141.232 208.205 130.21 201.674 119.667C200.666 118.042 199.752 117.874 197.949 118.521C190.197 121.283 182.258 122.819 174.072 120.581C168.613 119.089 163.381 116.935 158.124 114.86C156.336 114.154 154.473 113.521 152.66 114.499C148.135 116.94 143.199 118.536 138.812 121.248C136.772 122.508 134.766 123.931 133.803 126.188C131.906 130.62 130.068 135.086 128.472 139.631C127.173 143.327 128.615 144.828 132.474 143.944C137.765 142.734 141.663 139.572 143.802 134.632C144.756 132.428 146.02 131.405 148.293 131.173C149.993 131 151.83 131.371 153.377 130.482C156.212 128.846 158.658 129.642 161.528 130.773C168.909 133.678 175.939 137.126 182.09 142.146C184.753 144.32 187.722 144.898 190.958 144.883C192.02 144.883 193.088 144.843 194.095 144.389C194.496 144.206 194.935 144.275 195.093 144.759C195.281 145.337 194.723 145.431 194.397 145.56C192.351 146.36 190.227 146.306 188.093 146.044L188.083 146.039ZM169.413 188.991C165.263 187.859 161.978 185.537 158.495 183.601C155.768 182.084 153.046 180.533 149.75 180.711C149.232 180.74 148.407 181.042 148.417 180.172C148.421 179.426 149.296 179.52 149.8 179.495C152.596 179.357 155.091 180.35 157.522 181.624C160.931 183.418 164.092 185.681 167.684 187.113C172.615 189.08 178.642 187.103 180.741 182.84C181.181 181.946 182.154 180.725 180.188 180.142C177.382 179.312 175.095 177.549 172.778 175.849C167.931 172.287 162.867 169.13 156.983 167.53C156.39 167.367 155.333 167.475 155.501 166.675C155.728 165.598 156.706 166.24 157.359 166.393C162.561 167.623 167.037 170.331 171.384 173.3C174.354 175.325 177.036 177.801 180.559 178.932C184.15 180.088 188.878 178.127 190.37 174.782C190.899 173.591 191.457 172.277 189.842 171.378C188.019 170.36 186.665 168.809 185.173 167.401C179.566 162.13 174.294 156.349 166.286 154.615C165.802 154.512 165.268 154.344 165.555 153.692C165.807 153.109 166.34 153.272 166.834 153.38C170.95 154.265 174.408 156.429 177.683 158.943C181.601 161.952 184.951 165.583 188.597 168.883C191.749 171.739 195.573 170.573 196.714 166.448C197.934 162.041 197.069 157.906 193.937 154.541C184.822 144.749 174.393 136.85 161.657 132.216C158.816 131.183 156.306 130.156 153.352 131.825C152.295 132.423 150.783 132.384 149.489 132.359C147.053 132.305 145.823 133.263 144.731 135.6C142.369 140.659 138.274 144.107 132.676 145.184C127.509 146.182 125.646 143.855 127.326 138.94C128.541 135.373 130.557 132.132 131.501 128.451C132.4 124.938 134.613 122.394 137.656 120.467C138.388 120.008 139.469 119.835 139.845 118.743C138.546 118.6 137.434 118.733 136.283 118.921C131.367 119.736 127.153 122.034 123.235 124.953C117.544 129.192 111.561 130.822 104.931 127.186C104.047 126.702 103.538 126.915 102.911 127.705C100.539 130.674 98.6619 133.94 97.0019 137.324C93.7462 143.954 91.4736 150.816 92.1504 158.385C92.3085 160.168 92.8075 161.226 94.7738 161.468C97.2934 161.774 99.3437 163.222 101.261 164.773C103.558 166.63 105.806 168.557 108.019 170.514C109.63 171.936 111.092 172.801 112.969 170.785C113.705 169.995 114.906 169.56 115.968 169.15C118.873 168.033 120.829 168.508 122.573 170.879C123.102 171.6 123.413 171.274 123.957 171.146C127.509 170.321 129.776 171.319 131.525 174.397C136.733 171.185 138.17 172.208 141.11 181.323C142.977 180.123 144.968 179.293 146.984 180.755C149.083 182.277 149.375 184.554 149.083 186.95C148.975 187.844 148.846 188.749 148.604 189.613C148.328 190.611 148.54 190.982 149.632 191.258C152.809 192.064 155.956 192.997 159.206 193.476C163.43 194.094 166.602 192.315 169.408 189.005L169.413 188.991ZM208.803 162.421C210.794 164.106 211.268 164.274 213.491 163.735C220.912 161.932 227.369 157.97 234.068 154.531C235.333 153.884 235.753 153.079 235.817 151.696C236.212 143.341 234.103 135.466 231.44 127.675C228.935 120.349 226.114 113.205 220.571 107.519C218.479 105.375 216.171 105.011 213.644 106.427C213.002 106.787 212.34 107.109 211.693 107.464C207.83 109.618 203.902 111.649 199.861 113.472C199.194 113.773 196.743 114.603 199.609 115.715C200.617 116.105 201.244 117.068 201.867 117.928C207.395 125.526 210.996 133.994 213.007 143.129C214.252 148.781 214.731 154.482 212.459 160.05C211.881 161.473 211.159 162.762 208.793 162.421H208.803ZM105.88 124.138C105.02 122.943 104.067 122.577 103.168 122.261C99.5215 120.976 96.1373 119.129 92.6692 117.469C88.7235 115.578 85.2751 116.289 82.324 119.603C77.6949 124.8 75.2642 131.144 72.9472 137.541C70.8426 143.356 69.3851 149.295 69.5877 155.539C69.6173 156.409 69.4395 157.397 70.4967 157.891C77.3886 161.097 84.0976 164.778 91.6416 166.339C92.7581 166.571 94.1118 166.833 94.8924 165.306C93.4448 165.104 92.6939 164.249 92.1554 163.044C91.3402 161.231 90.8067 159.368 90.7721 157.372C90.5843 145.382 95.584 135.353 102.639 126.114C103.385 125.141 104.348 124.39 105.88 124.148V124.138ZM134.643 191.09C136.639 191.49 137.805 190.67 137.982 188.343C138.076 187.148 138.506 185.957 138.911 184.811C139.998 181.753 139.593 178.868 137.977 176.126C136.426 173.498 134.885 173.251 132.716 175.345C130.201 177.766 128.467 180.686 127.538 184.07C126.58 187.573 127.647 189.588 131.071 190.591C132.168 190.912 133.279 191.224 134.643 191.09ZM123.507 187.721C124.228 187.479 125.73 188.432 125.824 186.654C126.017 182.988 127.598 179.91 129.594 176.966C130.76 175.242 130.236 173.829 128.556 172.845C126.713 171.763 124.806 171.719 123.013 173.003C120.839 174.555 119.164 176.551 118.023 178.967C115.756 183.764 118.033 187.489 123.507 187.726V187.721ZM150.906 192.918C147.132 192.059 146.845 191.678 147.572 188.506C147.814 187.449 147.937 186.412 147.913 185.345C147.873 183.581 147.26 181.995 145.536 181.387C143.748 180.755 142.35 181.832 141.288 183.181C139.766 185.107 139.262 187.424 138.931 189.801C138.531 192.686 139.573 194.134 142.444 194.549C145.22 194.949 147.735 194.054 150.911 192.913L150.906 192.918ZM118.315 169.881C115.84 170.227 113.498 171.477 111.591 173.488C109.165 176.047 109.946 180.478 113.137 181.941C114.12 182.39 115.538 183.136 115.998 181.096C116.66 178.142 118.226 175.681 120.355 173.567C121.111 172.816 121.57 171.902 121.19 170.929C120.76 169.837 119.624 169.931 118.325 169.881H118.315Z" fill="#212121" stroke="black" stroke-width="4" mask="url(#path-1-inside-1_2742_3398)"/>
<path d="M161.777 81.0602L161.518 81.0609C161.596 78.7384 162.226 76.6433 163.231 74.6001L160.777 81.0646C160.777 81.1426 160.776 81.22 160.775 81.2968C160.775 81.2969 160.775 81.297 160.775 81.297C160.752 82.9278 160.424 84.2639 159.328 85.2533L159.328 85.2535C158.931 85.6116 158.687 86.0066 158.544 86.4061L158.531 86.3764L157.646 86.7025C156.943 86.9618 156.241 87.1907 155.541 87.3865C155.541 87.3866 155.54 87.3866 155.54 87.3867C154.889 87.5689 154.238 87.7226 153.589 87.8457M161.777 81.0602L161.518 81.0613C161.515 81.1436 161.513 81.2262 161.512 81.3091L161.512 81.3099C161.481 83.0871 160.894 84.599 159.846 85.7699C159.837 85.7794 159.828 85.7889 159.82 85.7983C159.82 85.7984 159.82 85.7984 159.82 85.7984C159.487 86.1652 159.115 86.4921 158.708 86.7803L158.909 87.2407C159.16 87.8164 159.334 88.4346 159.284 89.0328C159.284 89.0328 159.284 89.0329 159.284 89.0329C159.258 89.351 159.169 89.6635 158.995 89.961C158.888 90.1437 158.759 90.303 158.613 90.4423M161.777 81.0602C161.767 78.7778 162.399 76.7176 163.481 74.7365C164.011 73.765 164.555 72.7998 165.099 71.8345C167.387 67.7721 169.677 63.7075 170.954 59.1614M161.777 81.0602C161.781 82.8931 161.465 84.6716 159.998 85.9957C159.212 86.7057 159.334 87.5948 159.45 88.4383C159.477 88.6336 159.504 88.8266 159.519 89.0142L170.954 59.1614M158.613 90.4423C158.588 89.993 158.558 89.5435 158.522 89.0936L158.522 89.0932C158.509 88.9366 158.488 88.7837 158.463 88.5982C158.453 88.529 158.443 88.4553 158.433 88.3751C158.398 88.114 158.363 87.8027 158.365 87.4779C158.365 87.466 158.366 87.454 158.366 87.442C158.368 87.2929 158.379 87.1401 158.402 86.9856C158.228 87.0957 158.049 87.1995 157.865 87.2968C157.207 87.6451 156.484 87.9113 155.714 88.0986L155.712 88.0991C155.466 88.1585 155.18 88.2228 154.91 88.246C154.655 88.2677 154.255 88.2702 153.876 88.0573C153.766 87.9961 153.672 87.9247 153.589 87.8457M158.613 90.4423C158.487 90.5619 158.35 90.6667 158.203 90.7588M158.613 90.4423C158.639 90.916 158.658 91.3894 158.671 91.8625L158.203 90.7588M153.589 87.8457C153.538 87.8555 153.487 87.865 153.436 87.8743M153.589 87.8457C153.56 87.8174 153.532 87.7881 153.506 87.7579M153.436 87.8743L160.512 81.2924C160.457 84.4049 158.481 86.3958 155.478 87.127C154.494 87.3642 153.926 87.4086 154.178 86.0352L153.959 85.9952C153.93 86.1923 153.902 86.3894 153.874 86.5865L153.874 86.5867C153.812 87.0195 153.697 87.417 153.506 87.7579M153.436 87.8743C153.46 87.8363 153.483 87.7975 153.506 87.7579M153.436 87.8743L153.194 85.8554C153.156 86.0635 153.128 86.2734 153.121 86.479C153.121 86.4791 153.121 86.4791 153.121 86.4791C153.114 86.6555 153.123 86.8288 153.152 86.9949C153.2 87.2597 153.308 87.5322 153.506 87.7579M145.756 64.1086C146.059 63.7852 146.304 63.4376 146.494 63.062M145.756 64.1086L144.53 66.6639C144.362 65.6643 144.936 65.2237 145.493 64.7956C145.677 64.6545 145.859 64.5147 146.012 64.3568C146.583 63.7651 146.831 64.1799 147.074 64.5878C147.186 64.7759 147.298 64.9627 147.44 65.0484C148.136 65.4733 148.872 65.6956 149.524 65.3152C150.799 64.5742 152.019 64.6581 153.249 65.2609C154.096 65.6761 154.623 65.288 155.216 64.8207C155.239 64.6688 155.263 64.5167 155.287 64.3646C155.151 64.4958 154.981 64.6454 154.807 64.7558C154.618 64.8752 154.352 65.0008 154.023 65.0238C153.809 65.0389 153.602 65.0081 153.408 64.9386C153.407 64.9386 153.407 64.9386 153.407 64.9385C153.286 64.895 153.169 64.8363 153.058 64.7642L153.055 64.7619C152.761 64.5683 152.497 64.2965 152.36 63.9238C152.355 63.912 152.351 63.9001 152.347 63.8883M145.756 64.1086L146.011 64.3565L145.755 64.1091M145.756 64.1086L145.755 64.1091M146.494 63.062C146.496 63.0619 146.499 63.0619 146.502 63.0619M146.494 63.062C146.495 63.0582 146.497 63.0544 146.499 63.0506C146.5 63.0544 146.501 63.0581 146.502 63.0619M146.494 63.062C145.956 63.0705 145.553 63.3927 145.292 63.6621L145.755 64.1091M146.502 63.0619C146.675 63.7148 147.056 64.2997 147.587 64.7805C147.59 64.7834 147.593 64.7862 147.596 64.789C147.597 64.7893 147.597 64.7895 147.597 64.7898C147.843 65.0105 148.187 65.2143 148.618 65.2433C148.902 65.2626 149.164 65.2015 149.394 65.0912C149.394 65.0912 149.394 65.0911 149.394 65.0911C149.53 65.026 149.654 64.9438 149.766 64.8507C150.117 64.5628 150.382 64.2313 150.561 63.8615M146.502 63.0619C146.517 63.0617 146.531 63.0618 146.546 63.0621C147.14 63.0754 147.499 63.4605 147.653 63.6542C147.774 63.8061 147.897 64.0138 147.962 64.1228C147.976 64.1465 147.987 64.1656 147.995 64.1784C148.011 64.2041 148.024 64.2237 148.033 64.2383C148.044 64.2443 148.054 64.2501 148.064 64.2558L145.755 64.1091M150.561 63.8615C151.166 63.7459 151.763 63.7637 152.347 63.8883M150.561 63.8615C150.644 63.6922 150.708 63.5148 150.755 63.3299C150.898 62.7622 150.854 62.1931 150.745 61.6721L150.745 61.671C150.45 60.2662 150.742 58.8529 151.082 57.208L151.082 57.2056C151.121 57.0132 151.154 56.7952 151.182 56.6091C151.191 56.5444 151.2 56.4836 151.209 56.429C151.247 56.1883 151.284 56.0014 151.334 55.8475C151.421 55.5797 151.502 55.5227 151.641 55.4838C151.682 55.4722 151.716 55.465 151.743 55.4606C151.768 55.5168 151.799 55.6038 151.832 55.7344C151.867 55.8681 151.893 55.9962 151.923 56.1478C151.937 56.2168 151.952 56.2907 151.97 56.3722L151.971 56.3797L151.973 56.3872C152.034 56.6559 152.181 56.8379 152.261 56.9254C152.354 57.0275 152.456 57.1067 152.545 57.1658C152.694 57.2635 152.962 57.4049 153.287 57.4169L153.324 56.4176L153.284 57.4168C153.776 57.4362 153.937 57.5373 153.965 57.5584C153.971 57.5633 153.973 57.565 153.973 57.5661C153.974 57.5666 153.974 57.5669 153.974 57.5673C153.977 57.5733 153.99 57.6004 153.999 57.6652C154.02 57.8156 154.007 58.0299 153.961 58.3663C153.953 58.422 153.944 58.4833 153.934 58.5489C153.895 58.8168 153.846 59.1547 153.836 59.4585M150.561 63.8615C150.147 63.9407 149.729 64.0823 149.308 64.2951L149.129 64.0801M152.347 63.8883C152.224 63.5286 152.258 63.1913 152.33 62.9331C152.4 62.6785 152.518 62.4599 152.608 62.3071C152.655 62.2276 152.739 62.0958 152.796 62.0056C152.821 61.9649 152.842 61.9328 152.851 61.9177L153.704 62.4399M152.347 63.8883L153.704 62.4399M158.073 59.8081C158.103 59.668 158.129 59.5249 158.151 59.3786L158.151 59.3772C158.203 59.0293 158.199 58.6244 158.196 58.3077L158.195 58.2782C158.191 57.9157 158.189 57.6224 158.216 57.3763C158.239 57.1773 158.272 57.1107 158.27 57.1099C158.27 57.1096 158.265 57.1179 158.253 57.1317C158.197 57.1965 158.137 57.2234 158.099 57.2353L158.254 56.2658L158.098 57.2355C158.08 57.2411 158.067 57.2434 158.062 57.2447C157.939 57.2123 157.875 57.1222 157.859 57.1002C157.855 57.0951 157.854 57.0936 157.856 57.0973C157.882 57.1673 157.915 57.3477 157.901 57.6732C157.881 58.1785 157.766 58.7744 157.649 59.3019C157.649 59.3021 157.649 59.3023 157.649 59.3025C157.62 59.4369 157.59 59.5668 157.561 59.6896C157.561 59.6898 157.561 59.69 157.561 59.6902L158.073 59.8085L158.073 59.8081ZM158.073 59.8081L158.536 59.9154L158.073 59.8081ZM153.704 62.4399L152.851 61.9186C153.418 60.9902 153.811 60.2399 153.836 59.4585M153.704 62.4399C154.262 61.5259 154.801 60.5675 154.835 59.4905M153.836 59.4585L154.835 59.4905M153.836 59.4585C153.836 59.4585 153.836 59.4584 153.836 59.4584L154.835 59.4905M154.835 59.4905L152.909 55.976C152.737 55.1284 152.548 54.1943 151.372 54.5205C150.442 54.7803 150.31 55.6705 150.188 56.4895C150.162 56.6672 150.136 56.8416 150.102 57.0055C150.096 57.0382 150.089 57.071 150.082 57.1038C149.757 58.6727 149.428 60.2652 149.766 61.8767C149.949 62.7511 149.845 63.4922 149.129 64.0801M149.129 64.0801C148.833 64.3271 148.531 64.2876 148.26 64.0406L148.064 64.2561C148.308 64.3944 148.51 64.4708 148.669 64.4985C148.83 64.5264 148.931 64.5038 149.02 64.4514L149.022 64.4507C149.117 64.3955 149.212 64.344 149.306 64.296L149.129 64.0801ZM158.203 90.7588C158.179 90.7737 158.155 90.7882 158.131 90.8024C158.079 90.8333 158.026 90.8627 157.971 90.8906L143.453 90.141L143.338 90.4975C147.678 91.7712 151.882 91.6013 156.567 90.6565C156.567 90.6564 156.567 90.6564 156.567 90.6564C157.048 90.5594 157.534 90.4543 158.026 90.3417L158.203 90.7588ZM170.954 59.1614L170.497 59.1188C169.94 61.5774 169.02 63.9645 167.824 66.2912L167.824 66.2912C166.651 68.5723 165.385 70.8034 164.096 72.9998L164.096 72.9998L170.954 59.1614ZM141.653 90.6157C141.653 90.4912 141.653 90.3682 141.653 90.2463C141.7 90.2938 141.748 90.3394 141.798 90.383L141.653 90.6157ZM141.54 93.4467C141.589 93.0554 141.617 92.6645 141.633 92.279C141.911 92.4827 142.209 92.6711 142.525 92.8445L141.916 94.0485L141.516 93.6488C141.523 93.5823 141.531 93.5153 141.54 93.448L141.54 93.4467ZM158.677 94.4796C158.67 94.7398 158.662 94.9999 158.651 95.2599C158.448 95.107 158.224 95.025 158.009 94.9849C158.247 94.8294 158.471 94.6612 158.677 94.4796ZM158.681 92.2808L158.514 92.3313C158.57 92.2973 158.625 92.2629 158.68 92.228C158.681 92.2456 158.681 92.2632 158.681 92.2808ZM142.709 56.3856C142.709 56.3858 142.709 56.3891 142.709 56.3953C142.708 56.3886 142.708 56.3855 142.709 56.3856ZM143.988 64.8462C143.947 64.6369 143.906 64.4283 143.866 64.2204L144.273 64.1886L144.411 64.3882C144.353 64.4409 144.294 64.4965 144.238 64.5547C144.153 64.6418 144.069 64.7386 143.988 64.8462ZM156.971 62.4025C156.924 62.6316 156.878 62.8607 156.833 63.09H156.463C156.642 62.8691 156.812 62.6406 156.971 62.4025ZM147.13 59.6664C147.075 59.8069 147.018 59.951 146.962 60.0981C146.957 58.5697 147.181 57.0814 147.693 55.6554C147.75 55.4976 147.797 55.3766 147.845 55.2755C147.869 55.227 147.888 55.1915 147.904 55.166C147.952 55.1773 147.97 55.1906 147.974 55.1937C147.98 55.1976 147.99 55.2069 148.005 55.233C148.04 55.2961 148.079 55.4338 148.067 55.6463C148.015 56.5004 147.908 57.3266 147.693 58.0919C147.552 58.5857 147.362 59.0761 147.15 59.6166L147.13 59.6664ZM147.84 55.1566C147.84 55.1566 147.841 55.1566 147.842 55.1566L147.84 55.1566ZM151.82 55.4544C151.82 55.4544 151.819 55.4543 151.818 55.4541L151.82 55.4544ZM142.091 56.5834C142.089 56.579 142.089 56.5765 142.089 56.5763C142.089 56.5762 142.09 56.5784 142.091 56.5834ZM170.509 59.0656C170.515 59.0388 170.521 59.012 170.527 58.9852L170.509 59.0656Z" fill="#212121" stroke="black" stroke-width="2"/>
<path d="M203.515 75.792C202.715 75.5302 202.009 75.3276 201.317 75.0707C192.523 71.7705 183.734 68.4654 174.955 65.1356C174.278 64.8787 172.959 64.8738 173.414 63.7227C173.917 62.4431 174.762 63.5794 175.419 63.8215C184.465 67.1562 193.511 70.5058 202.552 73.8603C203.011 74.0283 203.461 74.2358 203.886 74.4729C204.266 74.6804 204.573 75.0411 204.311 75.461C204.177 75.6735 203.752 75.7031 203.515 75.792Z" fill="#FFCC05"/>
<path d="M203.558 32.5015C203.474 33.2574 202.995 33.4599 202.55 33.6477C195.53 36.5526 188.505 39.4477 181.489 42.3526C179.296 43.2617 177.112 44.1954 174.938 45.144C174.365 45.3959 173.703 46.0727 173.293 45.1835C172.908 44.3387 173.851 44.1015 174.395 43.8644C177.843 42.3477 181.306 40.8656 184.775 39.3884C190.278 37.0467 195.787 34.7148 201.29 32.3829C202.096 32.042 202.916 31.5529 203.558 32.5015Z" fill="#FFCC05"/>
<path d="M125.973 65.1995C125.939 66.0493 125.178 65.9406 124.723 66.1827C119.437 68.9542 113.805 70.9353 108.331 73.2771C105.411 74.527 102.492 75.767 99.567 77.012C99.0433 77.2343 98.5295 77.5307 97.9811 77.6592C97.4574 77.7827 96.7065 78.0001 96.4792 77.3183C96.2273 76.5723 96.993 76.4537 97.5068 76.2363C101.489 74.5566 105.476 72.8818 109.453 71.1823C114.176 69.1617 118.879 67.0818 123.627 65.1056C124.318 64.8191 125.262 64.0286 125.978 65.1995H125.973Z" fill="#FFCC05"/>
<path d="M96.4783 33.9513C97.1156 34.2082 97.8666 34.5392 98.6274 34.8208C106.591 37.8048 114.56 40.7838 122.524 43.7629C122.83 43.8765 123.151 43.9655 123.438 44.1235C123.912 44.3903 124.693 44.5534 124.431 45.2845C124.189 45.9713 123.413 45.7983 122.924 45.6155C120.933 44.8844 118.937 44.1482 116.941 43.4319C110.183 41.0111 103.499 38.3729 96.7896 35.8039C96.1473 35.5569 95.2235 35.4877 95.3519 34.4552C95.4162 33.9562 95.925 33.9612 96.4783 33.9414V33.9513Z" fill="#FFCC05"/>
<path d="M126.17 1.89062C128.279 4.22249 129.055 7.01875 130.246 9.55317C133.057 15.5261 135.69 21.583 138.353 27.6251C138.644 28.2822 139.603 29.1764 138.491 29.7149C137.587 30.1546 137.35 29.0035 137.073 28.4007C133.472 20.4615 129.905 12.5075 126.338 4.54855C126.017 3.82726 125.448 3.12078 126.17 1.89062Z" fill="#FFCC05"/>
<path d="M169.389 0.632876C168.45 3.50818 167.58 6.31926 166.617 9.1007C164.512 15.1922 162.378 21.2788 160.195 27.3455C159.957 27.9977 160.125 29.3958 158.999 29.0846C157.838 28.7634 158.643 27.6519 158.87 26.9849C161.4 19.4706 163.984 11.9809 166.553 4.48144C167.002 3.17223 167.412 1.84821 167.902 0.553829C168.045 0.17342 168.445 -0.0538383 168.909 0.00544637C169.334 0.0597906 169.394 0.361154 169.384 0.627935L169.389 0.632876Z" fill="#FFCC05"/>
<path d="M192.953 57.5471C187.815 57.1667 182.672 56.9395 177.514 57.0136C176.961 57.0235 176.393 56.8308 175.859 56.6529C175.464 56.5195 175.138 56.1984 175.237 55.7291C175.335 55.2548 175.76 55.1708 176.185 55.1214C178.003 54.9189 179.772 55.566 181.545 55.5166C186.545 55.3734 191.5 56.154 196.495 56.0947C197.147 56.0848 198.313 55.7044 198.338 56.6727C198.367 57.7843 197.162 57.5076 196.401 57.5373C195.255 57.5817 194.109 57.5471 192.963 57.5471H192.953Z" fill="#FFCC05"/>
<path d="M121.498 91.9323C120.574 91.5765 120.846 90.9689 121.276 90.4057C123.568 87.4217 125.875 84.4476 128.197 81.4833C129.506 79.8085 130.825 78.1436 132.179 76.5133C132.584 76.0242 132.881 74.878 133.804 75.6784C134.427 76.2119 133.814 76.9135 133.429 77.4125C130.776 80.8411 128.093 84.2499 125.416 87.6638C124.507 88.8247 123.588 89.9759 122.703 91.1467C122.397 91.5568 122.096 91.9224 121.493 91.9372L121.498 91.9323Z" fill="#FFCC05"/>
<path d="M127.68 35.3729C127.562 35.6446 127.522 35.941 127.364 36.0448C126.964 36.3066 126.554 36.0695 126.243 35.8324C125.013 34.8887 123.787 33.9352 122.602 32.9373C119.356 30.2003 116.13 27.4386 112.899 24.6868C112.587 24.4201 112.291 24.1385 112.009 23.842C111.664 23.4814 111.263 23.0071 111.59 22.5526C112.069 21.8758 112.696 22.3994 113.077 22.7156C117.716 26.5889 122.325 30.4967 126.929 34.4095C127.226 34.6615 127.423 35.0419 127.68 35.3778V35.3729Z" fill="#FFCC05"/>
<path d="M169.375 70.5704C169.523 70.6742 169.795 70.8421 170.042 71.0398C174.607 74.6117 179.078 78.2972 183.268 82.3038C183.692 82.709 184.606 83.1635 184.053 83.8452C183.49 84.5369 182.887 83.781 182.413 83.3808C177.986 79.6459 173.57 75.9011 169.153 72.1563C168.807 71.8599 168.204 71.6919 168.446 71.0398C168.57 70.7186 168.832 70.521 169.37 70.5754L169.375 70.5704Z" fill="#FFCC05"/>
<path d="M167.152 33.4102C166.856 33.2521 166.53 33.1928 166.465 33.0297C166.253 32.4814 166.702 32.1158 166.989 31.7502C169.731 28.2079 172.498 24.6854 175.239 21.1481C176.188 19.9278 177.072 18.6582 178.031 17.4428C178.382 16.9982 178.846 16.5387 179.478 17.0476C179.972 17.4478 179.809 17.9023 179.478 18.3272C175.803 23.0008 172.137 27.6793 168.446 32.3331C168.106 32.763 167.597 33.0544 167.157 33.4151L167.152 33.4102Z" fill="#FFCC05"/>
<path d="M104.352 52.2501C110.547 52.5514 116.327 52.8231 122.103 53.1146C122.636 53.1393 123.446 52.9664 123.437 53.7667C123.427 54.4337 122.681 54.6165 122.108 54.5424C116.253 53.8211 110.354 54.33 104.495 53.915C103.759 53.8656 102.218 53.9841 102.321 52.9022C102.45 51.5732 103.927 52.4032 104.357 52.2501H104.352Z" fill="#FFCC05"/>
<path d="M150.86 18.6215C150.86 21.561 150.865 24.5005 150.855 27.4401C150.855 27.9934 150.905 28.7542 150.124 28.7394C149.358 28.7246 149.418 27.9687 149.418 27.4104C149.408 21.5313 149.408 15.6523 149.418 9.76829C149.418 9.21002 149.388 8.45414 150.159 8.46896C150.919 8.48379 150.865 9.23967 150.865 9.79793C150.875 12.7375 150.87 15.677 150.87 18.6165C150.87 18.6165 150.865 18.6165 150.86 18.6165V18.6215Z" fill="#FFCC05"/>
<path d="M144.217 64.1104C143.856 61.818 143.609 59.7332 143.169 57.6928C143.026 57.0308 143.402 55.6475 142.216 55.8352C141.248 55.9884 141.959 57.0752 141.979 57.7471C142.112 61.739 143.263 65.5777 143.792 69.5151C144.592 75.4732 145.6 81.4067 146.529 87.4142C141.07 86.352 139.39 84.4746 139.341 80.5371C139.286 76.1254 136.742 72.6967 134.613 69.115C131.92 64.5896 129.445 59.9802 129.139 54.5606C128.58 44.6255 137.285 34.2655 147.275 32.9563C157.432 31.6273 167.501 38.9687 169.625 49.1854C170.85 55.0941 169.63 60.5829 166.933 65.8296C165.772 68.0874 164.517 70.2957 163.232 72.4892C161.632 75.2163 160.565 78.0225 160.51 81.2881C160.461 84.4005 158.48 86.3915 155.476 87.1227C154.493 87.3598 153.925 87.4043 154.177 86.0309C155.758 77.3457 156.533 68.532 158.534 59.911C158.806 58.7352 159.329 56.433 158.252 56.2601C156.8 56.0279 157.319 58.172 157.161 59.2243C156.899 60.9831 156.005 62.2182 154.839 63.3891C154.488 63.7398 154.088 64.2437 153.604 63.9226C152.937 63.4829 153.406 62.9247 153.702 62.4356C154.261 61.5216 154.804 60.5582 154.834 59.4862C154.873 58.2511 155.708 56.5071 153.322 56.4132C153.189 56.4083 152.971 56.27 152.946 56.1613C152.754 55.272 152.635 54.1604 151.37 54.5161C150.239 54.8323 150.293 56.0822 150.101 57.0011C149.77 58.6018 149.419 60.2272 149.765 61.8724C149.948 62.7517 149.839 63.4879 149.128 64.0758C148.826 64.3228 148.53 64.2833 148.258 64.0362C147.527 63.3742 147.221 62.5245 147.497 61.5957C147.818 60.4989 148.342 59.4614 148.653 58.3597C148.895 57.5001 149.009 56.596 149.063 55.7018C149.103 55.025 148.856 54.3383 148.095 54.1802C147.26 54.0073 146.978 54.6643 146.751 55.3115C146.134 57.0357 145.906 58.8192 145.971 60.6323C146.02 62.0156 145.63 63.1322 144.217 64.1054V64.1104Z" fill="#FAF4D8"/>
<path d="M156.334 64.0914C155.139 71.7144 153.928 79.0706 152.876 86.4466C152.599 88.3882 151.25 87.7311 150.307 87.7657C149.353 87.8052 147.99 88.5068 147.698 86.5652C146.71 79.9204 145.633 73.2904 144.522 66.6653C144.299 65.3363 145.386 65.0004 146.004 64.3581C146.839 63.4936 146.982 64.7731 147.432 65.0498C148.128 65.4747 148.864 65.697 149.516 65.3166C150.791 64.5755 152.011 64.6595 153.241 65.2622C154.561 65.9045 155.104 64.6002 156.329 64.0914H156.334Z" fill="#FAF4D8"/>
</g>
<defs>
<clipPath id="clip0_2742_3398">
<rect width="306.521" height="196" fill="white" transform="translate(0.738281)"/>
</clipPath>
</defs>
</svg>
